<svg xmlns="http://www.w3.org/2000/svg" width="1600" height="1260" viewBox="0 0 1600 1260" role="img" aria-labelledby="t d">
<title id="t">Travel assistant, grounded</title>
<desc id="d">The case-study product in this system: a lock-screen fare alert bound to a live quote, a fare card rendered from the API, and policy answers that cite or defer. · Wake, A Glance-inspired design system. Original vector artwork; not a Glance asset.</desc>
<defs><style>.sans{font-family:Inter, 'Helvetica Neue', Arial, sans-serif;}.disp{font-family:'Instrument Serif', 'Times New Roman', Georgia, serif;}.tnum{font-variant-numeric:tabular-nums;}</style><clipPath id="c169"><rect x="135" y="250" width="390" height="844" rx="54"/></clipPath><clipPath id="c170"><rect x="135" y="250" width="390" height="844" rx="0"/></clipPath><linearGradient id="g171" x1="0" y1="0" x2="0" y2="1"><stop offset="0" stop-color="#2E5B9A"/><stop offset="1" stop-color="#A9CBEE"/></linearGradient><linearGradient id="g172" x1="0" y1="0" x2="0" y2="1"><stop offset="0" stop-color="#000" stop-opacity="0.5"/><stop offset="1" stop-color="#000" stop-opacity="0"/></linearGradient><linearGradient id="g173" x1="0" y1="0" x2="0" y2="1"><stop offset="0" stop-color="#000" stop-opacity="0"/><stop offset="0.42" stop-color="#000" stop-opacity="0.0"/><stop offset="0.6699999999999999" stop-color="#000" stop-opacity="0.35"/><stop offset="1" stop-color="#000" stop-opacity="0.9"/></linearGradient><clipPath id="c174"><rect x="605" y="250" width="390" height="844" rx="54"/></clipPath><clipPath id="c175"><rect x="1075" y="250" width="390" height="844" rx="54"/></clipPath></defs>
<rect id="background" width="1600" height="1260" fill="#0C0C10"/>
<text x="64" y="84" class="sans" font-size="12" font-weight="600" letter-spacing="0.96" fill="#FF0049">UI EXAMPLES · 12 · CASE APPLICATION</text>
<text x="64" y="148" class="disp" font-size="64" font-weight="400" letter-spacing="-0.32" fill="#FFFFFF">Travel assistant, grounded</text>
<text x="1016" y="76" class="sans" font-size="15" font-weight="400" fill="#B8B8C2">The case-study product in this system: a lock-screen fare alert bound to</text><text x="1016" y="98.5" class="sans" font-size="15" font-weight="400" fill="#B8B8C2">a live quote, a fare card rendered from the API, and policy answers that</text><text x="1016" y="121" class="sans" font-size="15" font-weight="400" fill="#B8B8C2">cite or defer.</text>
<line x1="64" y1="184" x2="1536" y2="184" stroke="rgba(255, 255, 255, 0.08)" stroke-width="1" stroke-linecap="butt"/>
<line x1="64" y1="1204" x2="1536" y2="1204" stroke="rgba(255, 255, 255, 0.08)" stroke-width="1" stroke-linecap="butt"/>
<text x="64" y="1234" class="sans" font-size="12" font-weight="500" fill="#85838F">Wake · A Glance-inspired design system · v1.0</text>
<path d="M1399.65 1225.55 L1404.45 1230.35 L1399.65 1235.15 L1394.85 1230.35Z" fill="none" stroke="#FFFFFF" stroke-width="1.2" stroke-linecap="round" stroke-linejoin="round"/><text x="1410.45" y="1234" class="sans" font-size="12" font-weight="500" fill="#FFFFFF">Original interpretation</text>
<circle cx="1276.67" cy="1230.35" r="4.2" fill="none" stroke="#85838F" stroke-width="1.2"/><text x="1287.47" y="1234" class="sans" font-size="12" font-weight="500" fill="#85838F">Reconstruction</text>
<circle cx="1145.13" cy="1230.35" r="4.2" fill="none" stroke="#85838F" stroke-width="1.2"/><path d="M1145.13 1226.15 A4.200000000000001 4.200000000000001 0 0 0 1145.13 1234.55Z" fill="#85838F"/><text x="1155.93" y="1234" class="sans" font-size="12" font-weight="500" fill="#85838F">Strong inference</text>
<circle cx="1053.03" cy="1230.35" r="4.8" fill="#85838F"/><text x="1063.83" y="1234" class="sans" font-size="12" font-weight="500" fill="#85838F">Observed</text>
<g><rect x="125" y="240" width="410" height="864" rx="64" fill="#1B1B20" stroke="#2E2E36" stroke-width="1"/><g clip-path="url(#c169)"><rect x="135" y="250" width="390" height="844" fill="#000000"/><g clip-path="url(#c170)" data-media="plane"><rect x="135" y="250" width="390" height="844" fill="url(#g171)"/><path d="M135.0 798.6 Q252.0 756.4 369.0 798.6 T525.0 798.6 V1094 H135.0Z" fill="#FFFFFF" opacity="0.18"/><path d="M135.0 883.0 Q252.0 840.8 369.0 883.0 T525.0 883.0 V1094 H135.0Z" fill="#FFFFFF" opacity="0.28"/><path d="M135.0 967.4000000000001 Q252.0 925.2 369.0 967.4000000000001 T525.0 967.4000000000001 V1094 H135.0Z" fill="#FFFFFF" opacity="0.38"/><g transform="translate(337.8 435.68) rotate(40) scale(8.125)"><path d="M12 2.8c.9 0 1.5.9 1.5 2v5.1l7 4.1v2l-7-2.1v4.1l2.2 1.6v1.6L12 20.3l-3.7.9v-1.6l2.2-1.6v-4.1l-7 2.1v-2l7-4.1V4.8c0-1.1.6-2 1.5-2z" fill="#FFFFFF"/></g><line x1="252" y1="714.2" x2="330" y2="528.52" stroke="#FFFFFF" stroke-width="2" stroke-linecap="round" opacity="0.5"/></g><rect x="135" y="250" width="390" height="260" rx="0" fill="url(#g172)"/><rect x="135" y="250" width="390" height="844" rx="0" fill="url(#g173)"/><text x="163" y="280" class="sans tnum" font-size="15" font-weight="600" letter-spacing="-0.07" fill="#FFFFFF">9:41</text><rect x="470" y="270" width="25" height="12" rx="3.5" fill="none" stroke="#FFFFFF" stroke-width="1" opacity="0.9"/><rect x="472" y="272" width="18" height="8" rx="2" fill="#FFFFFF"/><rect x="496.5" y="274" width="1.5" height="4" rx="1" fill="#FFFFFF" opacity="0.6"/><rect x="437" y="277.5" width="3" height="2.5" rx="1" fill="#FFFFFF"/><rect x="442" y="275" width="3" height="5" rx="1" fill="#FFFFFF"/><rect x="447" y="272.5" width="3" height="7.5" rx="1" fill="#FFFFFF"/><rect x="452" y="270" width="3" height="10" rx="1" fill="#FFFFFF"/><path d="M455.0 275 a8 8 0 0 1 11 0 M457.5 278 a4 4 0 0 1 6 0" fill="none" stroke="#FFFFFF" stroke-width="1.6" stroke-linecap="round" stroke-linejoin="round"/><g transform="translate(321 310) scale(0.75)" fill="none" stroke="#FFFFFF" stroke-width="2.333" stroke-linecap="round" stroke-linejoin="round" data-icon="lock"><path d="M7 10.5h10a2 2 0 0 1 2 2v6a2 2 0 0 1-2 2H7a2 2 0 0 1-2-2v-6a2 2 0 0 1 2-2z"/><path d="M8 10.5V8a4 4 0 0 1 8 0v2.5"/></g><text x="330" y="362" class="sans" font-size="17" font-weight="600" letter-spacing="-0.09" text-anchor="middle" fill="#FFFFFF">Wednesday, 30 September</text><text x="330" y="450" class="sans tnum" font-size="96" font-weight="600" letter-spacing="-2.88" text-anchor="middle" fill="#FFFFFF">9:41</text><g><rect x="155" y="706" width="66.8" height="3" rx="1.5" fill="rgba(255,255,255,.32)"/><rect x="155" y="706" width="66.8" height="3" rx="1.5" fill="rgba(255,255,255,.92)"/><rect x="225.8" y="706" width="66.8" height="3" rx="1.5" fill="rgba(255,255,255,.32)"/><rect x="225.8" y="706" width="36.74" height="3" rx="1.5" fill="rgba(255,255,255,.92)"/><rect x="296.6" y="706" width="66.8" height="3" rx="1.5" fill="rgba(255,255,255,.32)"/><rect x="367.4" y="706" width="66.8" height="3" rx="1.5" fill="rgba(255,255,255,.32)"/><rect x="438.2" y="706" width="66.8" height="3" rx="1.5" fill="rgba(255,255,255,.32)"/></g><g><rect x="155" y="736" width="85.28" height="24" rx="12.0" fill="rgba(10,20,15,.72)"/><circle cx="166" cy="748" r="3" fill="#2FD08A"/><text x="174" y="751.8" class="sans" font-size="10.5" font-weight="600" letter-spacing="0.84" fill="#2FD08A">LIVE FARE</text></g><text x="155" y="786" class="sans" font-size="11" font-weight="600" letter-spacing="0.88" fill="rgba(255,255,255,.8)">YOUR SAVED TRIP · DELHI → GOA</text><text x="155" y="822" class="sans" font-size="28" font-weight="700" letter-spacing="-0.56" fill="#FFFFFF">Friday's fare to Goa</text><text x="155" y="854" class="sans" font-size="28" font-weight="700" letter-spacing="-0.56" fill="#FFFFFF">dropped to ₹4,120</text><text x="155" y="880" class="sans tnum" font-size="12" font-weight="500" letter-spacing="0.12" fill="rgba(255,255,255,.72)">Live fare · checked 9:32 · Skyline Air</text><g><rect x="155" y="898" width="123.43" height="44" rx="22.0" fill="#E6003F"/><text x="175" y="925.4" class="sans" font-size="15" font-weight="600" letter-spacing="-0.07" fill="#FFFFFF">See fare</text><g transform="translate(240.43 911) scale(0.75)" fill="none" stroke="#FFFFFF" stroke-width="2.333" stroke-linecap="round" stroke-linejoin="round" data-icon="arrow"><path d="M7 17 17 7"/><path d="M8.5 7H17v8.5"/></g></g><g><circle cx="483" cy="920" r="22" fill="rgba(22,22,27,.56)"/><g transform="translate(473 910) scale(0.8333)" fill="none" stroke="#FFFFFF" stroke-width="2.1" stroke-linecap="round" stroke-linejoin="round" data-icon="share"><path d="M12 15V3.8"/><path d="M7.5 8.3 12 3.8l4.5 4.5"/><path d="M5 12.5V19a1.5 1.5 0 0 0 1.5 1.5h11A1.5 1.5 0 0 0 19 19v-6.5"/></g></g><g><circle cx="431" cy="920" r="22" fill="rgba(22,22,27,.56)"/><g transform="translate(421 910) scale(0.8333)" fill="none" stroke="#FFFFFF" stroke-width="2.1" stroke-linecap="round" stroke-linejoin="round" data-icon="like"><path d="M12 20.2s-7.8-4.7-7.8-10.3A4.4 4.4 0 0 1 12 7.2a4.4 4.4 0 0 1 7.8 2.7c0 5.6-7.8 10.3-7.8 10.3z"/></g></g><g><circle cx="187" cy="1040" r="22" fill="rgba(22,22,27,.56)"/><g transform="translate(177 1030) scale(0.8333)" fill="none" stroke="#FFFFFF" stroke-width="2.1" stroke-linecap="round" stroke-linejoin="round" data-icon="live"><circle cx="12" cy="12" r="2.2" fill="#FFFFFF"/><path d="M8 8a5.7 5.7 0 0 0 0 8"/><path d="M16 8a5.7 5.7 0 0 1 0 8"/><path d="M5.2 5.2a9.6 9.6 0 0 0 0 13.6"/><path d="M18.8 5.2a9.6 9.6 0 0 1 0 13.6"/></g></g><g><circle cx="473" cy="1040" r="22" fill="rgba(22,22,27,.56)"/><g transform="translate(463 1030) scale(0.8333)" fill="none" stroke="#FFFFFF" stroke-width="2.1" stroke-linecap="round" stroke-linejoin="round" data-icon="camera"><path d="M4.5 7.5h3l1.5-2h6l1.5 2h3a1 1 0 0 1 1 1v10a1 1 0 0 1-1 1h-15a1 1 0 0 1-1-1v-10a1 1 0 0 1 1-1z"/><path d="M15.5 13a3.5 3.5 0 1 1-7 0 3.5 3.5 0 0 1 7 0z"/></g></g><text x="330" y="1046" class="sans" font-size="12" font-weight="500" text-anchor="middle" fill="rgba(255,255,255,.64)">Swipe for next story</text><rect x="263" y="1081" width="134" height="5" rx="3" fill="#FFFFFF"/></g><rect x="268" y="261" width="124" height="36" rx="18" fill="#000000"/></g>
<text x="330" y="1144" class="sans" font-size="14" font-weight="600" letter-spacing="-0.07" text-anchor="middle" fill="#B8B8C2">Alert: live fare, timestamped</text>
<g transform="translate(553 660) scale(1.0)" fill="none" stroke="#85838F" stroke-width="1.75" stroke-linecap="round" stroke-linejoin="round" data-icon="forward"><path d="M4.5 12h15"/><path d="M13.5 6l6 6-6 6"/></g>
<g><rect x="595" y="240" width="410" height="864" rx="64" fill="#1B1B20" stroke="#2E2E36" stroke-width="1"/><g clip-path="url(#c174)"><rect x="605" y="250" width="390" height="844" fill="#000000"/><rect x="605" y="250" width="390" height="844" fill="#0C0C10"/><text x="633" y="280" class="sans tnum" font-size="15" font-weight="600" letter-spacing="-0.07" fill="#FFFFFF">9:41</text><rect x="940" y="270" width="25" height="12" rx="3.5" fill="none" stroke="#FFFFFF" stroke-width="1" opacity="0.9"/><rect x="942" y="272" width="18" height="8" rx="2" fill="#FFFFFF"/><rect x="966.5" y="274" width="1.5" height="4" rx="1" fill="#FFFFFF" opacity="0.6"/><rect x="907" y="277.5" width="3" height="2.5" rx="1" fill="#FFFFFF"/><rect x="912" y="275" width="3" height="5" rx="1" fill="#FFFFFF"/><rect x="917" y="272.5" width="3" height="7.5" rx="1" fill="#FFFFFF"/><rect x="922" y="270" width="3" height="10" rx="1" fill="#FFFFFF"/><path d="M925.0 275 a8 8 0 0 1 11 0 M927.5 278 a4 4 0 0 1 6 0" fill="none" stroke="#FFFFFF" stroke-width="1.6" stroke-linecap="round" stroke-linejoin="round"/><g id="top-bar"><g><g transform="translate(627 316) scale(0.8333)" fill="none" stroke="#FFFFFF" stroke-width="2.1" stroke-linecap="round" stroke-linejoin="round" data-icon="back"><path d="M19.5 12h-15"/><path d="M10.5 6l-6 6 6 6"/></g></g><text x="800" y="332" class="sans" font-size="17" font-weight="600" letter-spacing="-0.17" text-anchor="middle" fill="#FFFFFF">Ask</text><g><g transform="translate(949 316) scale(0.8333)" fill="none" stroke="#FFFFFF" stroke-width="2.1" stroke-linecap="round" stroke-linejoin="round" data-icon="more"><circle cx="6" cy="12" r="1.6" fill="#FFFFFF"/><circle cx="12" cy="12" r="1.6" fill="#FFFFFF"/><circle cx="18" cy="12" r="1.6" fill="#FFFFFF"/></g></g></g><g id="bubble-user"><rect x="748.21" y="370" width="230.79" height="65" rx="20" fill="#FFFFFF"/><text x="764.21" y="397" class="sans" font-size="15" font-weight="400" fill="#0C0C10">Cheapest flight Delhi to Goa</text><text x="764.21" y="419.5" class="sans" font-size="15" font-weight="400" fill="#0C0C10">this Friday?</text></g><g id="assistant-line"><circle cx="633" cy="467" r="12" fill="#251A2E"/><g transform="translate(625 459) scale(0.6667)" fill="none" stroke="#DDBEF0" stroke-width="2.625" stroke-linecap="round" stroke-linejoin="round" data-icon="personalization"><path d="M11 3.5c.6 4.3 2.2 5.9 6.5 6.5-4.3.6-5.9 2.2-6.5 6.5-.6-4.3-2.2-5.9-6.5-6.5 4.3-.6 5.9-2.2 6.5-6.5z"/><path d="M18.5 15.5c.2 1.3.7 1.8 2 2-1.3.2-1.8.7-2 2-.2-1.3-.7-1.8-2-2 1.3-.2 1.8-.7 2-2z"/></g><text x="655" y="472" class="sans" font-size="15" font-weight="400" fill="#FFFFFF">I checked live fares across six airlines at 9:41.</text><text x="655" y="494.5" class="sans" font-size="15" font-weight="400" fill="#FFFFFF">Here's the cheapest non-stop:</text></g><g id="fare-card"><rect x="621" y="520" width="358" height="270" rx="16" fill="#16161B" stroke="rgba(255, 255, 255, 0.12)" stroke-width="1"/><text x="637" y="550" class="sans" font-size="12" font-weight="600" fill="#85838F">Skyline Air · SK 2134</text><g><rect x="910.64" y="534" width="52.36" height="22" rx="11.0" fill="#0F2E22"/><circle cx="921.64" cy="545" r="3" fill="#2FD08A"/><text x="929.64" y="548.8" class="sans" font-size="10.5" font-weight="600" letter-spacing="0.84" fill="#2FD08A">LIVE</text></g><text x="637" y="594" class="sans tnum" font-size="26" font-weight="700" letter-spacing="-0.52" fill="#FFFFFF">06:10</text><text x="637" y="614" class="sans" font-size="12" font-weight="600" fill="#B8B8C2">DEL</text><text x="963" y="594" class="sans tnum" font-size="26" font-weight="700" letter-spacing="-0.52" text-anchor="end" fill="#FFFFFF">08:45</text><text x="963" y="614" class="sans" font-size="12" font-weight="600" text-anchor="end" fill="#B8B8C2">GOI</text><line x1="725" y1="586" x2="875" y2="586" stroke="rgba(255, 255, 255, 0.12)" stroke-width="1.5" stroke-linecap="butt" stroke-dasharray="3 4"/><rect x="786" y="574" width="28" height="24" fill="#16161B"/><g transform="translate(790 576) scale(0.8333)" fill="none" stroke="#B8B8C2" stroke-width="2.1" stroke-linecap="round" stroke-linejoin="round" data-icon="plane"><path d="M12 2.8c.9 0 1.5.9 1.5 2v5.1l7 4.1v2l-7-2.1v4.1l2.2 1.6v1.6L12 20.3l-3.7.9v-1.6l2.2-1.6v-4.1l-7 2.1v-2l7-4.1V4.8c0-1.1.6-2 1.5-2z"/></g><text x="800" y="614" class="sans" font-size="11" font-weight="500" text-anchor="middle" fill="#85838F">2h 35m · Non-stop</text><line x1="637" y1="632" x2="963" y2="632" stroke="rgba(255, 255, 255, 0.08)" stroke-width="1" stroke-linecap="butt"/><text x="637" y="668" class="sans tnum" font-size="30" font-weight="700" letter-spacing="-0.6" fill="#FFFFFF">₹5,842</text><text x="637" y="690" class="sans" font-size="11" font-weight="500" fill="#85838F">Incl. taxes and fees · Economy saver</text><circle cx="827.91" cy="664" r="3" fill="#2FD08A"/><text x="963" y="668" class="sans tnum" font-size="11" font-weight="600" text-anchor="end" fill="#2FD08A">Live fare · checked 9:41</text><g><rect x="637" y="718" width="326" height="52" rx="26.0" fill="#E6003F"/><text x="746.12" y="749.4" class="sans" font-size="15" font-weight="600" letter-spacing="-0.07" fill="#FFFFFF">Book at ₹5,842</text></g></g><text x="621" y="816" class="sans" font-size="14" font-weight="600" letter-spacing="-0.07" fill="#FF4D7D">2 more options · from ₹6,105</text><g transform="translate(814.4 802) scale(0.6667)" fill="none" stroke="#FF4D7D" stroke-width="2.625" stroke-linecap="round" stroke-linejoin="round" data-icon="chevron-down"><path d="M5.5 9.5 12 16l6.5-6.5"/></g><g><rect x="621" y="840" width="186.77" height="34" rx="17.0" fill="#2A2A33"/><g transform="translate(635 849) scale(0.6667)" fill="none" stroke="#FFFFFF" stroke-width="2.625" stroke-linecap="round" stroke-linejoin="round" data-icon="baggage"><path d="M7 7.5h10a2 2 0 0 1 2 2v9a2 2 0 0 1-2 2H7a2 2 0 0 1-2-2v-9a2 2 0 0 1 2-2z"/><path d="M9.5 7.5V5a1 1 0 0 1 1-1h3a1 1 0 0 1 1 1v2.5"/><path d="M9.5 11.5v5"/><path d="M14.5 11.5v5"/></g><text x="657" y="862" class="sans" font-size="14" font-weight="500" letter-spacing="-0.07" fill="#FFFFFF">Baggage allowance?</text></g><g><rect x="815.77" y="840" width="169.01" height="34" rx="17.0" fill="#2A2A33"/><g transform="translate(829.77 849) scale(0.6667)" fill="none" stroke="#FFFFFF" stroke-width="2.625" stroke-linecap="round" stroke-linejoin="round" data-icon="passport"><path d="M7 3h10a1.5 1.5 0 0 1 1.5 1.5v15A1.5 1.5 0 0 1 17 21H7a1.5 1.5 0 0 1-1.5-1.5v-15A1.5 1.5 0 0 1 7 3z"/><path d="M15 10.5a3 3 0 1 1-6 0 3 3 0 0 1 6 0z"/><path d="M9.5 16.5h5"/></g><text x="851.77" y="862" class="sans" font-size="14" font-weight="500" letter-spacing="-0.07" fill="#FFFFFF">Visa for Thailand?</text></g><rect x="605" y="990" width="390" height="104" fill="rgba(12,12,16,.96)"/><line x1="605" y1="990" x2="995" y2="990" stroke="rgba(255, 255, 255, 0.08)" stroke-width="1" stroke-linecap="butt"/><rect x="621" y="1004" width="302" height="48" rx="24" fill="#2A2A33"/><text x="641" y="1034" class="sans" font-size="15" font-weight="400" fill="#85838F">Ask about fares, stays, rules…</text><g><circle cx="955" cy="1026" r="24" fill="#E6003F"/><g transform="translate(943 1014) scale(1.0)" fill="none" stroke="#FFFFFF" stroke-width="1.75" stroke-linecap="round" stroke-linejoin="round" data-icon="mic"><path d="M12 3.5a3 3 0 0 1 3 3v5a3 3 0 0 1-6 0v-5a3 3 0 0 1 3-3z"/><path d="M5.5 11.5a6.5 6.5 0 0 0 13 0"/><path d="M12 18v2.5"/></g></g><rect x="733" y="1081" width="134" height="5" rx="3" fill="#FFFFFF"/></g><rect x="738" y="261" width="124" height="36" rx="18" fill="#000000"/></g>
<text x="800" y="1144" class="sans" font-size="14" font-weight="600" letter-spacing="-0.07" text-anchor="middle" fill="#B8B8C2">Answer: fare card from the API</text>
<g transform="translate(1023 660) scale(1.0)" fill="none" stroke="#85838F" stroke-width="1.75" stroke-linecap="round" stroke-linejoin="round" data-icon="forward"><path d="M4.5 12h15"/><path d="M13.5 6l6 6-6 6"/></g>
<g><rect x="1065" y="240" width="410" height="864" rx="64" fill="#1B1B20" stroke="#2E2E36" stroke-width="1"/><g clip-path="url(#c175)"><rect x="1075" y="250" width="390" height="844" fill="#000000"/><rect x="1075" y="250" width="390" height="844" fill="#0C0C10"/><text x="1103" y="280" class="sans tnum" font-size="15" font-weight="600" letter-spacing="-0.07" fill="#FFFFFF">9:41</text><rect x="1410" y="270" width="25" height="12" rx="3.5" fill="none" stroke="#FFFFFF" stroke-width="1" opacity="0.9"/><rect x="1412" y="272" width="18" height="8" rx="2" fill="#FFFFFF"/><rect x="1436.5" y="274" width="1.5" height="4" rx="1" fill="#FFFFFF" opacity="0.6"/><rect x="1377" y="277.5" width="3" height="2.5" rx="1" fill="#FFFFFF"/><rect x="1382" y="275" width="3" height="5" rx="1" fill="#FFFFFF"/><rect x="1387" y="272.5" width="3" height="7.5" rx="1" fill="#FFFFFF"/><rect x="1392" y="270" width="3" height="10" rx="1" fill="#FFFFFF"/><path d="M1395.0 275 a8 8 0 0 1 11 0 M1397.5 278 a4 4 0 0 1 6 0" fill="none" stroke="#FFFFFF" stroke-width="1.6" stroke-linecap="round" stroke-linejoin="round"/><g id="top-bar"><g><g transform="translate(1097 316) scale(0.8333)" fill="none" stroke="#FFFFFF" stroke-width="2.1" stroke-linecap="round" stroke-linejoin="round" data-icon="back"><path d="M19.5 12h-15"/><path d="M10.5 6l-6 6 6 6"/></g></g><text x="1270" y="332" class="sans" font-size="17" font-weight="600" letter-spacing="-0.17" text-anchor="middle" fill="#FFFFFF">Ask</text><g><g transform="translate(1419 316) scale(0.8333)" fill="none" stroke="#FFFFFF" stroke-width="2.1" stroke-linecap="round" stroke-linejoin="round" data-icon="more"><circle cx="6" cy="12" r="1.6" fill="#FFFFFF"/><circle cx="12" cy="12" r="1.6" fill="#FFFFFF"/><circle cx="18" cy="12" r="1.6" fill="#FFFFFF"/></g></g></g><g id="bubble-user"><rect x="1192.93" y="368" width="256.07" height="65" rx="20" fill="#FFFFFF"/><text x="1208.93" y="395" class="sans" font-size="15" font-weight="400" fill="#0C0C10">Do I need a visa for Thailand on</text><text x="1208.93" y="417.5" class="sans" font-size="15" font-weight="400" fill="#0C0C10">an Indian passport?</text></g><g id="policy-card"><rect x="1091" y="449" width="358" height="250" rx="16" fill="#16161B" stroke="rgba(255, 255, 255, 0.12)" stroke-width="1"/><g><rect x="1107" y="465" width="120.77" height="22" rx="11.0" fill="#0F2E22"/><g transform="translate(1114 469.5) scale(0.5417)" fill="none" stroke="#2FD08A" stroke-width="3.231" stroke-linecap="round" stroke-linejoin="round" data-icon="shield-check"><path d="M12 3 19.5 6v5.5c0 4.6-3.2 8.2-7.5 9.5-4.3-1.3-7.5-4.9-7.5-9.5V6z"/><path d="M8.8 12.2l2.3 2.3 4.3-4.6"/></g><text x="1130" y="479.8" class="sans" font-size="10.5" font-weight="600" letter-spacing="0.84" fill="#2FD08A">CITED ANSWER</text></g><text x="1107" y="515" class="sans" font-size="15" font-weight="400" fill="#FFFFFF">Indian passport holders can enter Thailand</text><text x="1107" y="537.5" class="sans" font-size="15" font-weight="400" fill="#FFFFFF">visa-free for tourism for a limited stay. Check</text><text x="1107" y="560" class="sans" font-size="15" font-weight="400" fill="#FFFFFF">the stay length and entry conditions on the</text><text x="1107" y="582.5" class="sans" font-size="15" font-weight="400" fill="#FFFFFF">official page before you fly.</text><rect x="1103" y="611" width="334" height="60" rx="12" fill="#2A2A33"/><rect x="1103" y="611" width="3" height="60" rx="1.5" fill="#2FD08A"/><g transform="translate(1117 629) scale(0.9167)" fill="none" stroke="#B8B8C2" stroke-width="1.909" stroke-linecap="round" stroke-linejoin="round" data-icon="passport"><path d="M7 3h10a1.5 1.5 0 0 1 1.5 1.5v15A1.5 1.5 0 0 1 17 21H7a1.5 1.5 0 0 1-1.5-1.5v-15A1.5 1.5 0 0 1 7 3z"/><path d="M15 10.5a3 3 0 1 1-6 0 3 3 0 0 1 6 0z"/><path d="M9.5 16.5h5"/></g><text x="1149" y="637" class="sans" font-size="12" font-weight="600" fill="#FFFFFF">Royal Thai Embassy, New Delhi · Visa page</text><text x="1149" y="655" class="sans tnum" font-size="12" font-weight="500" fill="#85838F">Last verified 29 Sep 2026</text><g transform="translate(1407 630) scale(0.8333)" fill="none" stroke="#B8B8C2" stroke-width="2.1" stroke-linecap="round" stroke-linejoin="round" data-icon="external"><path d="M13.5 4.5h6v6"/><path d="M19.5 4.5l-8 8"/><path d="M17.5 13.5v5a1 1 0 0 1-1 1h-11a1 1 0 0 1-1-1v-11a1 1 0 0 1 1-1h5"/></g></g><g id="bubble-user"><rect x="1227.69" y="719" width="221.31" height="65" rx="20" fill="#FFFFFF"/><text x="1243.69" y="746" class="sans" font-size="15" font-weight="400" fill="#0C0C10">And for a 10-hour transit in</text><text x="1243.69" y="768.5" class="sans" font-size="15" font-weight="400" fill="#0C0C10">Kuala Lumpur?</text></g><g id="deflect-card"><rect x="1091" y="800" width="358" height="265" rx="16" fill="#16161B" stroke="rgba(255, 255, 255, 0.12)" stroke-width="1"/><g transform="translate(1107 818) scale(0.8333)" fill="none" stroke="#5AA9FF" stroke-width="2.1" stroke-linecap="round" stroke-linejoin="round" data-icon="info"><path d="M20.5 12a8.5 8.5 0 1 1-17 0 8.5 8.5 0 0 1 17 0z"/><path d="M12 11v5.5"/><circle cx="12" cy="7.9" r="1.6" fill="#5AA9FF"/></g><text x="1137" y="833" class="sans" font-size="17" font-weight="600" letter-spacing="-0.17" fill="#FFFFFF">I can't confirm this one from an</text><text x="1137" y="855" class="sans" font-size="17" font-weight="600" letter-spacing="-0.17" fill="#FFFFFF">official source</text><text x="1107" y="890" class="sans" font-size="13" font-weight="400" fill="#B8B8C2">Transit rules for this route changed recently. Rather</text><text x="1107" y="909" class="sans" font-size="13" font-weight="400" fill="#B8B8C2">than guess, here's the official page, or talk to a travel</text><text x="1107" y="928" class="sans" font-size="13" font-weight="400" fill="#B8B8C2">expert.</text><g><rect x="1107" y="955" width="326" height="44" rx="22.0" fill="#FFFFFF"/><text x="1192.5" y="982.4" class="sans" font-size="15" font-weight="600" letter-spacing="-0.07" fill="#0C0C10">Open official page</text><g transform="translate(1329.5 968) scale(0.75)" fill="none" stroke="#0C0C10" stroke-width="2.333" stroke-linecap="round" stroke-linejoin="round" data-icon="external"><path d="M13.5 4.5h6v6"/><path d="M19.5 4.5l-8 8"/><path d="M17.5 13.5v5a1 1 0 0 1-1 1h-11a1 1 0 0 1-1-1v-11a1 1 0 0 1 1-1h5"/></g></g><g><rect x="1107" y="1007" width="326" height="44" rx="22.0" fill="none" stroke="rgba(255, 255, 255, 0.12)" stroke-width="1"/><g transform="translate(1197.53 1020) scale(0.75)" fill="none" stroke="#FFFFFF" stroke-width="2.333" stroke-linecap="round" stroke-linejoin="round" data-icon="chat"><path d="M4.5 6.5a2 2 0 0 1 2-2h11a2 2 0 0 1 2 2v8a2 2 0 0 1-2 2h-6.5l-4.5 3.5v-3.5h0a2 2 0 0 1-2-2z"/></g><text x="1223.53" y="1034.4" class="sans" font-size="15" font-weight="600" letter-spacing="-0.07" fill="#FFFFFF">Talk to an expert</text></g></g><rect x="1203" y="1081" width="134" height="5" rx="3" fill="#FFFFFF"/></g><rect x="1208" y="261" width="124" height="36" rx="18" fill="#000000"/></g>
<text x="1270" y="1144" class="sans" font-size="14" font-weight="600" letter-spacing="-0.07" text-anchor="middle" fill="#B8B8C2">Rules: cite, or deflect and hand off</text>
</svg>