<svg xmlns="http://www.w3.org/2000/svg" width="1704" height="900" viewBox="0 0 1704 900" role="img" aria-labelledby="t d">
<title id="t">Card A Large hero card</title>
<desc id="d">Once per screen, first position. For the single most relevant thing right now. Don't put more than 2 lines of headline or more than one CTA; don't use without a scrim. · Wake, A Glance-inspired design system. Original vector artwork; not a Glance asset.</desc>
<defs><style>.sans{font-family:Inter, 'Helvetica Neue', Arial, sans-serif;}.disp{font-family:'Instrument Serif', 'Times New Roman', Georgia, serif;}.tnum{font-variant-numeric:tabular-nums;}</style><clipPath id="c103"><rect x="64" y="260" width="358" height="448" rx="24"/></clipPath><linearGradient id="g104" x1="0" y1="0" x2="0" y2="1"><stop offset="0" stop-color="#9FD8F0"/><stop offset="0.5" stop-color="#57B8D6"/><stop offset="0.52" stop-color="#1E8FA8"/><stop offset="1" stop-color="#0B4F66"/></linearGradient><linearGradient id="g105" x1="0" y1="0" x2="0" y2="1"><stop offset="0" stop-color="#000" stop-opacity="0"/><stop offset="0.35" stop-color="#000" stop-opacity="0.0"/><stop offset="0.6" stop-color="#000" stop-opacity="0.35"/><stop offset="1" stop-color="#000" stop-opacity="0.85"/></linearGradient><clipPath id="c106"><rect x="0" y="0" width="358" height="448" rx="24"/></clipPath><linearGradient id="g107" x1="0" y1="0" x2="0" y2="1"><stop offset="0" stop-color="#9FD8F0"/><stop offset="0.5" stop-color="#57B8D6"/><stop offset="0.52" stop-color="#1E8FA8"/><stop offset="1" stop-color="#0B4F66"/></linearGradient><linearGradient id="g108" x1="0" y1="0" x2="0" y2="1"><stop offset="0" stop-color="#000" stop-opacity="0"/><stop offset="0.35" stop-color="#000" stop-opacity="0.0"/><stop offset="0.6" stop-color="#000" stop-opacity="0.35"/><stop offset="1" stop-color="#000" stop-opacity="0.85"/></linearGradient><clipPath id="c109"><rect x="876" y="260" width="358" height="448" rx="24"/></clipPath><linearGradient id="g110" x1="0" y1="0" x2="0" y2="1"><stop offset="0" stop-color="#9FD8F0"/><stop offset="0.5" stop-color="#57B8D6"/><stop offset="0.52" stop-color="#1E8FA8"/><stop offset="1" stop-color="#0B4F66"/></linearGradient><linearGradient id="g111" x1="0" y1="0" x2="0" y2="1"><stop offset="0" stop-color="#000" stop-opacity="0"/><stop offset="0.35" stop-color="#000" stop-opacity="0.0"/><stop offset="0.6" stop-color="#000" stop-opacity="0.35"/><stop offset="1" stop-color="#000" stop-opacity="0.85"/></linearGradient></defs>
<rect id="background" width="1704" height="900" fill="#0C0C10"/>
<text x="64" y="84" class="sans" font-size="12" font-weight="600" letter-spacing="0.96" fill="#FF0049">CARDS · CARD A</text>
<text x="64" y="148" class="disp" font-size="64" font-weight="400" letter-spacing="-0.32" fill="#FFFFFF">Large hero card</text>
<text x="1120" y="76" class="sans" font-size="15" font-weight="400" fill="#B8B8C2">Once per screen, first position. For the single most relevant thing right</text><text x="1120" y="98.5" class="sans" font-size="15" font-weight="400" fill="#B8B8C2">now. Don't put more than 2 lines of headline or more than one CTA; don't</text><text x="1120" y="121" class="sans" font-size="15" font-weight="400" fill="#B8B8C2">use without a scrim.</text>
<line x1="64" y1="184" x2="1640" y2="184" stroke="rgba(255, 255, 255, 0.08)" stroke-width="1" stroke-linecap="butt"/>
<line x1="64" y1="844" x2="1640" y2="844" stroke="rgba(255, 255, 255, 0.08)" stroke-width="1" stroke-linecap="butt"/>
<text x="64" y="874" class="sans" font-size="12" font-weight="500" fill="#85838F">Wake · A Glance-inspired design system · v1.0</text>
<path d="M1503.65 865.55 L1508.45 870.35 L1503.65 875.15 L1498.85 870.35Z" fill="none" stroke="#85838F" stroke-width="1.2" stroke-linecap="round" stroke-linejoin="round"/><text x="1514.45" y="874" class="sans" font-size="12" font-weight="500" fill="#85838F">Original interpretation</text>
<circle cx="1380.67" cy="870.35" r="4.2" fill="none" stroke="#85838F" stroke-width="1.2"/><text x="1391.47" y="874" class="sans" font-size="12" font-weight="500" fill="#85838F">Reconstruction</text>
<circle cx="1249.13" cy="870.35" r="4.2" fill="none" stroke="#85838F" stroke-width="1.2"/><path d="M1249.13 866.15 A4.200000000000001 4.200000000000001 0 0 0 1249.13 874.55Z" fill="#85838F"/><text x="1259.93" y="874" class="sans" font-size="12" font-weight="500" fill="#85838F">Strong inference</text>
<circle cx="1157.03" cy="870.35" r="4.8" fill="#FFFFFF"/><text x="1167.83" y="874" class="sans" font-size="12" font-weight="500" fill="#FFFFFF">Observed</text>
<text x="64" y="240" class="sans" font-size="11" font-weight="600" letter-spacing="0.88" fill="#85838F">DEFAULT</text>
<g id="card-hero"><g clip-path="url(#c103)" data-media="lagoon"><rect x="64" y="260" width="358" height="448" fill="url(#g104)"/><circle cx="350.4" cy="340.64" r="25.06" fill="#FFF6DA" opacity="0.9"/><path d="M64 609.44 Q243.0 582.56 422 618.4000000000001 V708 H64Z" fill="#EBD2A6"/><path d="M142.76 618.4000000000001 Q153.5 506.40000000000003 171.39999999999998 430.24" fill="none" stroke="#1B2B24" stroke-width="4.296" stroke-linecap="round" stroke-linejoin="round"/><path d="M171.39999999999998 430.24 Q183.03499999999997 407.84000000000003 194.67 415.9212371462743" fill="none" stroke="#1B2B24" stroke-width="3.58" stroke-linecap="round" stroke-linejoin="round"/><path d="M171.39999999999998 430.24 Q193.26664728568807 407.84000000000003 215.13329457137615 430.006498547406" fill="none" stroke="#1B2B24" stroke-width="3.58" stroke-linecap="round" stroke-linejoin="round"/><path d="M171.39999999999998 430.24 Q193.26664728568807 407.84000000000003 215.13329457137615 448.39350145259397" fill="none" stroke="#1B2B24" stroke-width="3.58" stroke-linecap="round" stroke-linejoin="round"/><path d="M171.39999999999998 430.24 Q183.03499999999997 407.84000000000003 194.67 462.4787628537257" fill="none" stroke="#1B2B24" stroke-width="3.58" stroke-linecap="round" stroke-linejoin="round"/><path d="M171.39999999999998 430.24 Q163.44119126481166 407.84000000000003 155.48238252962335 464.4589376467252" fill="none" stroke="#1B2B24" stroke-width="3.58" stroke-linecap="round" stroke-linejoin="round"/><path d="M171.39999999999998 430.24 Q149.5333527143119 407.84000000000003 127.6667054286238 448.39350145259397" fill="none" stroke="#1B2B24" stroke-width="3.58" stroke-linecap="round" stroke-linejoin="round"/><line x1="189.3" y1="519.84" x2="260.9" y2="519.84" stroke="#FFFFFF" stroke-width="1.2" stroke-linecap="round" opacity="0.35"/><line x1="207.2" y1="540" x2="282.38" y2="540" stroke="#FFFFFF" stroke-width="1.2" stroke-linecap="round" opacity="0.35"/><line x1="225.1" y1="560.16" x2="303.86" y2="560.16" stroke="#FFFFFF" stroke-width="1.2" stroke-linecap="round" opacity="0.35"/><line x1="243" y1="580.32" x2="325.34" y2="580.32" stroke="#FFFFFF" stroke-width="1.2" stroke-linecap="round" opacity="0.35"/></g><rect x="64" y="260" width="358" height="448" rx="24" fill="url(#g105)"/><rect x="64" y="260" width="358" height="448" rx="24" fill="none" stroke="rgba(255,255,255,.08)" stroke-width="1"/><g><rect x="80" y="276" width="82.65" height="24" rx="12.0" fill="rgba(37,26,46,.82)"/><g transform="translate(87 281.5) scale(0.5417)" fill="none" stroke="#DDBEF0" stroke-width="3.231" stroke-linecap="round" stroke-linejoin="round" data-icon="personalization"><path d="M11 3.5c.6 4.3 2.2 5.9 6.5 6.5-4.3.6-5.9 2.2-6.5 6.5-.6-4.3-2.2-5.9-6.5-6.5 4.3-.6 5.9-2.2 6.5-6.5z"/><path d="M18.5 15.5c.2 1.3.7 1.8 2 2-1.3.2-1.8.7-2 2-.2-1.3-.7-1.8-2-2 1.3-.2 1.8-.7 2-2z"/></g><text x="103" y="291.8" class="sans" font-size="10.5" font-weight="600" letter-spacing="0.84" fill="#DDBEF0">FOR YOU</text></g><g><circle cx="386" cy="292" r="20" fill="rgba(22,22,27,.56)"/><g transform="translate(376 282) scale(0.8333)" fill="none" stroke="#FFFFFF" stroke-width="2.1" stroke-linecap="round" stroke-linejoin="round" data-icon="bookmark"><path d="M7 3.5h10a1.5 1.5 0 0 1 1.5 1.5v15.5L12 16l-6.5 4.5V5A1.5 1.5 0 0 1 7 3.5z"/></g></g><g><rect x="84" y="644" width="135.45" height="44" rx="22.0" fill="#E6003F"/><text x="104" y="671.4" class="sans" font-size="15" font-weight="600" letter-spacing="-0.07" fill="#FFFFFF">Plan a trip</text><g transform="translate(181.45 657) scale(0.75)" fill="none" stroke="#FFFFFF" stroke-width="2.333" stroke-linecap="round" stroke-linejoin="round" data-icon="arrow"><path d="M7 17 17 7"/><path d="M8.5 7H17v8.5"/></g></g><g><circle cx="380" cy="666" r="22" fill="rgba(22,22,27,.56)"/><g transform="translate(370 656) scale(0.8333)" fill="none" stroke="#FFFFFF" stroke-width="2.1" stroke-linecap="round" stroke-linejoin="round" data-icon="share"><path d="M12 15V3.8"/><path d="M7.5 8.3 12 3.8l4.5 4.5"/><path d="M5 12.5V19a1.5 1.5 0 0 0 1.5 1.5h11A1.5 1.5 0 0 0 19 19v-6.5"/></g></g><text x="84" y="626" class="sans tnum" font-size="12" font-weight="500" letter-spacing="0.12" fill="rgba(255,255,255,.72)">Wake Travel · 4 min</text><text x="84" y="570.1" class="sans" font-size="26" font-weight="700" letter-spacing="-0.52" fill="#FFFFFF">Monsoon's over. Six</text><text x="84" y="600" class="sans" font-size="26" font-weight="700" letter-spacing="-0.52" fill="#FFFFFF">beaches worth the flight</text><text x="84" y="540.1" class="sans" font-size="11" font-weight="600" letter-spacing="0.88" fill="rgba(255,255,255,.8)">TRAVEL · FOR YOU</text></g>
<text x="470" y="240" class="sans" font-size="11" font-weight="600" letter-spacing="0.88" fill="#85838F">PRESSED</text>
<g transform="translate(473.58 263) scale(0.98)"><g id="card-hero"><g clip-path="url(#c106)" data-media="lagoon"><rect x="0" y="0" width="358" height="448" fill="url(#g107)"/><circle cx="286.4" cy="80.64" r="25.06" fill="#FFF6DA" opacity="0.9"/><path d="M0 349.44 Q179.0 322.56 358 358.40000000000003 V448 H0Z" fill="#EBD2A6"/><path d="M78.76 358.40000000000003 Q89.5 246.40000000000003 107.4 170.24" fill="none" stroke="#1B2B24" stroke-width="4.296" stroke-linecap="round" stroke-linejoin="round"/><path d="M107.4 170.24 Q119.03500000000001 147.84 130.67000000000002 155.9212371462743" fill="none" stroke="#1B2B24" stroke-width="3.58" stroke-linecap="round" stroke-linejoin="round"/><path d="M107.4 170.24 Q129.2666472856881 147.84 151.13329457137618 170.00649854740604" fill="none" stroke="#1B2B24" stroke-width="3.58" stroke-linecap="round" stroke-linejoin="round"/><path d="M107.4 170.24 Q129.2666472856881 147.84 151.13329457137618 188.393501452594" fill="none" stroke="#1B2B24" stroke-width="3.58" stroke-linecap="round" stroke-linejoin="round"/><path d="M107.4 170.24 Q119.03500000000001 147.84 130.67000000000002 202.47876285372573" fill="none" stroke="#1B2B24" stroke-width="3.58" stroke-linecap="round" stroke-linejoin="round"/><path d="M107.4 170.24 Q99.44119126481169 147.84 91.48238252962338 204.45893764672522" fill="none" stroke="#1B2B24" stroke-width="3.58" stroke-linecap="round" stroke-linejoin="round"/><path d="M107.4 170.24 Q85.53335271431192 147.84 63.66670542862383 188.393501452594" fill="none" stroke="#1B2B24" stroke-width="3.58" stroke-linecap="round" stroke-linejoin="round"/><line x1="125.3" y1="259.84" x2="196.9" y2="259.84" stroke="#FFFFFF" stroke-width="1.2" stroke-linecap="round" opacity="0.35"/><line x1="143.2" y1="280" x2="218.38" y2="280" stroke="#FFFFFF" stroke-width="1.2" stroke-linecap="round" opacity="0.35"/><line x1="161.1" y1="300.16" x2="239.86" y2="300.16" stroke="#FFFFFF" stroke-width="1.2" stroke-linecap="round" opacity="0.35"/><line x1="179" y1="320.32" x2="261.34" y2="320.32" stroke="#FFFFFF" stroke-width="1.2" stroke-linecap="round" opacity="0.35"/></g><rect x="0" y="0" width="358" height="448" rx="24" fill="url(#g108)"/><rect x="0" y="0" width="358" height="448" rx="24" fill="none" stroke="rgba(255,255,255,.08)" stroke-width="1"/><g><rect x="16" y="16" width="82.65" height="24" rx="12.0" fill="rgba(37,26,46,.82)"/><g transform="translate(23 21.5) scale(0.5417)" fill="none" stroke="#DDBEF0" stroke-width="3.231" stroke-linecap="round" stroke-linejoin="round" data-icon="personalization"><path d="M11 3.5c.6 4.3 2.2 5.9 6.5 6.5-4.3.6-5.9 2.2-6.5 6.5-.6-4.3-2.2-5.9-6.5-6.5 4.3-.6 5.9-2.2 6.5-6.5z"/><path d="M18.5 15.5c.2 1.3.7 1.8 2 2-1.3.2-1.8.7-2 2-.2-1.3-.7-1.8-2-2 1.3-.2 1.8-.7 2-2z"/></g><text x="39" y="31.8" class="sans" font-size="10.5" font-weight="600" letter-spacing="0.84" fill="#DDBEF0">FOR YOU</text></g><g><circle cx="322" cy="32" r="20" fill="rgba(22,22,27,.56)"/><g transform="translate(312 22) scale(0.8333)" fill="none" stroke="#FFFFFF" stroke-width="2.1" stroke-linecap="round" stroke-linejoin="round" data-icon="bookmark"><path d="M7 3.5h10a1.5 1.5 0 0 1 1.5 1.5v15.5L12 16l-6.5 4.5V5A1.5 1.5 0 0 1 7 3.5z"/></g></g><g><rect x="20" y="384" width="135.45" height="44" rx="22.0" fill="#E6003F"/><text x="40" y="411.4" class="sans" font-size="15" font-weight="600" letter-spacing="-0.07" fill="#FFFFFF">Plan a trip</text><g transform="translate(117.45 397) scale(0.75)" fill="none" stroke="#FFFFFF" stroke-width="2.333" stroke-linecap="round" stroke-linejoin="round" data-icon="arrow"><path d="M7 17 17 7"/><path d="M8.5 7H17v8.5"/></g></g><g><circle cx="316" cy="406" r="22" fill="rgba(22,22,27,.56)"/><g transform="translate(306 396) scale(0.8333)" fill="none" stroke="#FFFFFF" stroke-width="2.1" stroke-linecap="round" stroke-linejoin="round" data-icon="share"><path d="M12 15V3.8"/><path d="M7.5 8.3 12 3.8l4.5 4.5"/><path d="M5 12.5V19a1.5 1.5 0 0 0 1.5 1.5h11A1.5 1.5 0 0 0 19 19v-6.5"/></g></g><text x="20" y="366" class="sans tnum" font-size="12" font-weight="500" letter-spacing="0.12" fill="rgba(255,255,255,.72)">Wake Travel · 4 min</text><text x="20" y="310.1" class="sans" font-size="26" font-weight="700" letter-spacing="-0.52" fill="#FFFFFF">Monsoon's over. Six</text><text x="20" y="340" class="sans" font-size="26" font-weight="700" letter-spacing="-0.52" fill="#FFFFFF">beaches worth the flight</text><text x="20" y="280.1" class="sans" font-size="11" font-weight="600" letter-spacing="0.88" fill="rgba(255,255,255,.8)">TRAVEL · FOR YOU</text></g></g>
<text x="876" y="240" class="sans" font-size="11" font-weight="600" letter-spacing="0.88" fill="#85838F">SAVED / ACTIVE</text>
<g id="card-hero"><g clip-path="url(#c109)" data-media="lagoon"><rect x="876" y="260" width="358" height="448" fill="url(#g110)"/><circle cx="1162.4" cy="340.64" r="25.06" fill="#FFF6DA" opacity="0.9"/><path d="M876 609.44 Q1055.0 582.56 1234 618.4000000000001 V708 H876Z" fill="#EBD2A6"/><path d="M954.76 618.4000000000001 Q965.5 506.40000000000003 983.4 430.24" fill="none" stroke="#1B2B24" stroke-width="4.296" stroke-linecap="round" stroke-linejoin="round"/><path d="M983.4 430.24 Q995.035 407.84000000000003 1006.67 415.9212371462743" fill="none" stroke="#1B2B24" stroke-width="3.58" stroke-linecap="round" stroke-linejoin="round"/><path d="M983.4 430.24 Q1005.2666472856881 407.84000000000003 1027.1332945713762 430.006498547406" fill="none" stroke="#1B2B24" stroke-width="3.58" stroke-linecap="round" stroke-linejoin="round"/><path d="M983.4 430.24 Q1005.2666472856881 407.84000000000003 1027.1332945713762 448.39350145259397" fill="none" stroke="#1B2B24" stroke-width="3.58" stroke-linecap="round" stroke-linejoin="round"/><path d="M983.4 430.24 Q995.035 407.84000000000003 1006.67 462.4787628537257" fill="none" stroke="#1B2B24" stroke-width="3.58" stroke-linecap="round" stroke-linejoin="round"/><path d="M983.4 430.24 Q975.4411912648117 407.84000000000003 967.4823825296234 464.4589376467252" fill="none" stroke="#1B2B24" stroke-width="3.58" stroke-linecap="round" stroke-linejoin="round"/><path d="M983.4 430.24 Q961.5333527143118 407.84000000000003 939.6667054286238 448.39350145259397" fill="none" stroke="#1B2B24" stroke-width="3.58" stroke-linecap="round" stroke-linejoin="round"/><line x1="1001.3" y1="519.84" x2="1072.9" y2="519.84" stroke="#FFFFFF" stroke-width="1.2" stroke-linecap="round" opacity="0.35"/><line x1="1019.2" y1="540" x2="1094.38" y2="540" stroke="#FFFFFF" stroke-width="1.2" stroke-linecap="round" opacity="0.35"/><line x1="1037.1" y1="560.16" x2="1115.86" y2="560.16" stroke="#FFFFFF" stroke-width="1.2" stroke-linecap="round" opacity="0.35"/><line x1="1055" y1="580.32" x2="1137.34" y2="580.32" stroke="#FFFFFF" stroke-width="1.2" stroke-linecap="round" opacity="0.35"/></g><rect x="876" y="260" width="358" height="448" rx="24" fill="url(#g111)"/><rect x="876" y="260" width="358" height="448" rx="24" fill="none" stroke="rgba(255,255,255,.08)" stroke-width="1"/><g><rect x="892" y="276" width="82.65" height="24" rx="12.0" fill="rgba(37,26,46,.82)"/><g transform="translate(899 281.5) scale(0.5417)" fill="none" stroke="#DDBEF0" stroke-width="3.231" stroke-linecap="round" stroke-linejoin="round" data-icon="personalization"><path d="M11 3.5c.6 4.3 2.2 5.9 6.5 6.5-4.3.6-5.9 2.2-6.5 6.5-.6-4.3-2.2-5.9-6.5-6.5 4.3-.6 5.9-2.2 6.5-6.5z"/><path d="M18.5 15.5c.2 1.3.7 1.8 2 2-1.3.2-1.8.7-2 2-.2-1.3-.7-1.8-2-2 1.3-.2 1.8-.7 2-2z"/></g><text x="915" y="291.8" class="sans" font-size="10.5" font-weight="600" letter-spacing="0.84" fill="#DDBEF0">FOR YOU</text></g><g><circle cx="1198" cy="292" r="20" fill="rgba(22,22,27,.56)"/><g transform="translate(1188 282) scale(0.8333)" fill="none" stroke="#FFFFFF" stroke-width="2.1" stroke-linecap="round" stroke-linejoin="round" data-icon="bookmark"><path d="M7 3.5h10a1.5 1.5 0 0 1 1.5 1.5v15.5L12 16l-6.5 4.5V5A1.5 1.5 0 0 1 7 3.5z"/></g></g><g><rect x="896" y="644" width="135.45" height="44" rx="22.0" fill="#E6003F"/><text x="916" y="671.4" class="sans" font-size="15" font-weight="600" letter-spacing="-0.07" fill="#FFFFFF">Plan a trip</text><g transform="translate(993.45 657) scale(0.75)" fill="none" stroke="#FFFFFF" stroke-width="2.333" stroke-linecap="round" stroke-linejoin="round" data-icon="arrow"><path d="M7 17 17 7"/><path d="M8.5 7H17v8.5"/></g></g><g><circle cx="1192" cy="666" r="22" fill="rgba(22,22,27,.56)"/><g transform="translate(1182 656) scale(0.8333)" fill="none" stroke="#FFFFFF" stroke-width="2.1" stroke-linecap="round" stroke-linejoin="round" data-icon="share"><path d="M12 15V3.8"/><path d="M7.5 8.3 12 3.8l4.5 4.5"/><path d="M5 12.5V19a1.5 1.5 0 0 0 1.5 1.5h11A1.5 1.5 0 0 0 19 19v-6.5"/></g></g><text x="896" y="626" class="sans tnum" font-size="12" font-weight="500" letter-spacing="0.12" fill="rgba(255,255,255,.72)">Wake Travel · 4 min</text><text x="896" y="570.1" class="sans" font-size="26" font-weight="700" letter-spacing="-0.52" fill="#FFFFFF">Monsoon's over. Six</text><text x="896" y="600" class="sans" font-size="26" font-weight="700" letter-spacing="-0.52" fill="#FFFFFF">beaches worth the flight</text><text x="896" y="540.1" class="sans" font-size="11" font-weight="600" letter-spacing="0.88" fill="rgba(255,255,255,.8)">TRAVEL · FOR YOU</text></g>
<circle cx="1198" cy="292" r="20" fill="#FFFFFF"/>
<g transform="translate(1188 282) scale(0.8333)" fill="#0C0C10" stroke="#0C0C10" stroke-width="2.1" stroke-linecap="round" stroke-linejoin="round" data-icon="bookmark"><path d="M7 3.5h10a1.5 1.5 0 0 1 1.5 1.5v15.5L12 16l-6.5 4.5V5A1.5 1.5 0 0 1 7 3.5z"/></g>
<text x="1282" y="240" class="sans" font-size="11" font-weight="600" letter-spacing="0.88" fill="#85838F">LOADING</text>
<rect x="1282" y="260" width="358" height="448" rx="24" fill="#2A2A33"/>
<line x1="64" y1="760" x2="1640" y2="760" stroke="rgba(255, 255, 255, 0.08)" stroke-width="1" stroke-linecap="butt"/>
<text x="64" y="800" class="sans" font-size="13" font-weight="400" fill="#B8B8C2">Dimensions: 358 × 448 on mobile (4:5); 100% × 480 tablet; 720 × 405 desktop (16:9)</text>
<text x="64" y="824" class="sans" font-size="13" font-weight="400" fill="#B8B8C2">Ratio: 4:5 mobile, 16:9 desktop, 9:16 lock screen · Radius: 24 (0 when full-bleed on the lock screen) · Padding: 20</text>
</svg>