<svg xmlns="http://www.w3.org/2000/svg" width="1600" height="900" viewBox="0 0 1600 900" role="img" aria-labelledby="t d">
<title id="t">Card E Recommendation card</title>
<desc id="d">Anything chosen by personalisation. Never show a recommendation without its reason; never phrase the reason as a claim about the user's identity. · Wake, A Glance-inspired design system. Original vector artwork; not a Glance asset.</desc>
<defs><style>.sans{font-family:Inter, 'Helvetica Neue', Arial, sans-serif;}.disp{font-family:'Instrument Serif', 'Times New Roman', Georgia, serif;}.tnum{font-variant-numeric:tabular-nums;}</style><clipPath id="c135"><rect x="64" y="260" width="240" height="320" rx="16"/></clipPath><linearGradient id="g136" x1="0" y1="0" x2="0" y2="1"><stop offset="0" stop-color="#F7C98B"/><stop offset="0.6" stop-color="#F29E5C"/><stop offset="1" stop-color="#C4623A"/></linearGradient><linearGradient id="g137" x1="0" y1="0" x2="0" y2="1"><stop offset="0" stop-color="#000" stop-opacity="0"/><stop offset="0.3" stop-color="#000" stop-opacity="0.0"/><stop offset="0.55" stop-color="#000" stop-opacity="0.35"/><stop offset="1" stop-color="#000" stop-opacity="0.85"/></linearGradient><clipPath id="c138"><rect x="0" y="0" width="240" height="320" rx="16"/></clipPath><linearGradient id="g139" x1="0" y1="0" x2="0" y2="1"><stop offset="0" stop-color="#F7C98B"/><stop offset="0.6" stop-color="#F29E5C"/><stop offset="1" stop-color="#C4623A"/></linearGradient><linearGradient id="g140" x1="0" y1="0" x2="0" y2="1"><stop offset="0" stop-color="#000" stop-opacity="0"/><stop offset="0.3" stop-color="#000" stop-opacity="0.0"/><stop offset="0.55" stop-color="#000" stop-opacity="0.35"/><stop offset="1" stop-color="#000" stop-opacity="0.85"/></linearGradient><clipPath id="c141"><rect x="640" y="260" width="240" height="320" rx="16"/></clipPath><linearGradient id="g142" x1="0" y1="0" x2="0" y2="1"><stop offset="0" stop-color="#F7C98B"/><stop offset="0.6" stop-color="#F29E5C"/><stop offset="1" stop-color="#C4623A"/></linearGradient><linearGradient id="g143" x1="0" y1="0" x2="0" y2="1"><stop offset="0" stop-color="#000" stop-opacity="0"/><stop offset="0.3" stop-color="#000" stop-opacity="0.0"/><stop offset="0.55" stop-color="#000" stop-opacity="0.35"/><stop offset="1" stop-color="#000" stop-opacity="0.85"/></linearGradient></defs>
<rect id="background" width="1600" height="900" fill="#0C0C10"/>
<text x="64" y="84" class="sans" font-size="12" font-weight="600" letter-spacing="0.96" fill="#FF0049">CARDS · CARD E</text>
<text x="64" y="148" class="disp" font-size="64" font-weight="400" letter-spacing="-0.32" fill="#FFFFFF">Recommendation card</text>
<text x="1016" y="76" class="sans" font-size="15" font-weight="400" fill="#B8B8C2">Anything chosen by personalisation. Never show a recommendation</text><text x="1016" y="98.5" class="sans" font-size="15" font-weight="400" fill="#B8B8C2">without its reason; never phrase the reason as a claim about the user's</text><text x="1016" y="121" class="sans" font-size="15" font-weight="400" fill="#B8B8C2">identity.</text>
<line x1="64" y1="184" x2="1536" y2="184" stroke="rgba(255, 255, 255, 0.08)" stroke-width="1" stroke-linecap="butt"/>
<line x1="64" y1="844" x2="1536" y2="844" stroke="rgba(255, 255, 255, 0.08)" stroke-width="1" stroke-linecap="butt"/>
<text x="64" y="874" class="sans" font-size="12" font-weight="500" fill="#85838F">Wake · A Glance-inspired design system · v1.0</text>
<path d="M1399.65 865.55 L1404.45 870.35 L1399.65 875.15 L1394.85 870.35Z" fill="none" stroke="#FFFFFF" stroke-width="1.2" stroke-linecap="round" stroke-linejoin="round"/><text x="1410.45" y="874" class="sans" font-size="12" font-weight="500" fill="#FFFFFF">Original interpretation</text>
<circle cx="1276.67" cy="870.35" r="4.2" fill="none" stroke="#85838F" stroke-width="1.2"/><text x="1287.47" y="874" class="sans" font-size="12" font-weight="500" fill="#85838F">Reconstruction</text>
<circle cx="1145.13" cy="870.35" r="4.2" fill="none" stroke="#85838F" stroke-width="1.2"/><path d="M1145.13 866.15 A4.200000000000001 4.200000000000001 0 0 0 1145.13 874.55Z" fill="#85838F"/><text x="1155.93" y="874" class="sans" font-size="12" font-weight="500" fill="#85838F">Strong inference</text>
<circle cx="1053.03" cy="870.35" r="4.8" fill="#85838F"/><text x="1063.83" y="874" class="sans" font-size="12" font-weight="500" fill="#85838F">Observed</text>
<text x="64" y="240" class="sans" font-size="11" font-weight="600" letter-spacing="0.88" fill="#85838F">DEFAULT</text>
<g id="card-recommendation"><g clip-path="url(#c135)" data-media="desert"><rect x="64" y="260" width="240" height="320" fill="url(#g136)"/><circle cx="136" cy="372" r="28.8" fill="#FFF1D0" opacity="0.9"/><path d="M64 484.0 Q148.0 426.4 232.0 490.4 T304 468.0 V580 H64Z" fill="#B5532F"/><path d="M64 532.0 Q184.0 490.4 304 541.6 V580 H64Z" fill="#8A3A22"/></g><rect x="64" y="260" width="240" height="320" rx="16" fill="url(#g137)"/><rect x="64" y="260" width="240" height="320" rx="16" fill="none" stroke="rgba(255,255,255,.08)" stroke-width="1"/><rect x="76" y="272" width="209.59" height="28" rx="14" fill="rgba(37,26,46,.86)"/><g transform="translate(84 278) scale(0.6667)" fill="none" stroke="#DDBEF0" stroke-width="2.625" stroke-linecap="round" stroke-linejoin="round" data-icon="personalization"><path d="M11 3.5c.6 4.3 2.2 5.9 6.5 6.5-4.3.6-5.9 2.2-6.5 6.5-.6-4.3-2.2-5.9-6.5-6.5 4.3-.6 5.9-2.2 6.5-6.5z"/><path d="M18.5 15.5c.2 1.3.7 1.8 2 2-1.3.2-1.8.7-2 2-.2-1.3-.7-1.8-2-2 1.3-.2 1.8-.7 2-2z"/></g><text x="106" y="290.5" class="sans" font-size="12" font-weight="600" fill="#DDBEF0">Because you saved Jaisalmer</text><text x="80" y="513" class="sans" font-size="19" font-weight="700" letter-spacing="-0.19" fill="#FFFFFF">Desert camps that</text><text x="80" y="536" class="sans" font-size="19" font-weight="700" letter-spacing="-0.19" fill="#FFFFFF">open after the rains</text><text x="80" y="562" class="sans tnum" font-size="12" font-weight="500" letter-spacing="0.12" fill="rgba(255,255,255,.72)">12 stays · from ₹3,800</text><g transform="translate(270 548) scale(0.8333)" fill="none" stroke="rgba(255,255,255,.8)" stroke-width="2.1" stroke-linecap="round" stroke-linejoin="round" data-icon="more"><circle cx="6" cy="12" r="1.6" fill="rgba(255,255,255,.8)"/><circle cx="12" cy="12" r="1.6" fill="rgba(255,255,255,.8)"/><circle cx="18" cy="12" r="1.6" fill="rgba(255,255,255,.8)"/></g></g>
<text x="352" y="240" class="sans" font-size="11" font-weight="600" letter-spacing="0.88" fill="#85838F">PRESSED</text>
<g transform="translate(354.4 263) scale(0.98)"><g id="card-recommendation"><g clip-path="url(#c138)" data-media="desert"><rect x="0" y="0" width="240" height="320" fill="url(#g139)"/><circle cx="72" cy="112" r="28.8" fill="#FFF1D0" opacity="0.9"/><path d="M0 224.0 Q84.0 166.4 168.0 230.39999999999998 T240 208.0 V320 H0Z" fill="#B5532F"/><path d="M0 272.0 Q120.0 230.39999999999998 240 281.6 V320 H0Z" fill="#8A3A22"/></g><rect x="0" y="0" width="240" height="320" rx="16" fill="url(#g140)"/><rect x="0" y="0" width="240" height="320" rx="16" fill="none" stroke="rgba(255,255,255,.08)" stroke-width="1"/><rect x="12" y="12" width="209.59" height="28" rx="14" fill="rgba(37,26,46,.86)"/><g transform="translate(20 18) scale(0.6667)" fill="none" stroke="#DDBEF0" stroke-width="2.625" stroke-linecap="round" stroke-linejoin="round" data-icon="personalization"><path d="M11 3.5c.6 4.3 2.2 5.9 6.5 6.5-4.3.6-5.9 2.2-6.5 6.5-.6-4.3-2.2-5.9-6.5-6.5 4.3-.6 5.9-2.2 6.5-6.5z"/><path d="M18.5 15.5c.2 1.3.7 1.8 2 2-1.3.2-1.8.7-2 2-.2-1.3-.7-1.8-2-2 1.3-.2 1.8-.7 2-2z"/></g><text x="42" y="30.5" class="sans" font-size="12" font-weight="600" fill="#DDBEF0">Because you saved Jaisalmer</text><text x="16" y="253" class="sans" font-size="19" font-weight="700" letter-spacing="-0.19" fill="#FFFFFF">Desert camps that</text><text x="16" y="276" class="sans" font-size="19" font-weight="700" letter-spacing="-0.19" fill="#FFFFFF">open after the rains</text><text x="16" y="302" class="sans tnum" font-size="12" font-weight="500" letter-spacing="0.12" fill="rgba(255,255,255,.72)">12 stays · from ₹3,800</text><g transform="translate(206 288) scale(0.8333)" fill="none" stroke="rgba(255,255,255,.8)" stroke-width="2.1" stroke-linecap="round" stroke-linejoin="round" data-icon="more"><circle cx="6" cy="12" r="1.6" fill="rgba(255,255,255,.8)"/><circle cx="12" cy="12" r="1.6" fill="rgba(255,255,255,.8)"/><circle cx="18" cy="12" r="1.6" fill="rgba(255,255,255,.8)"/></g></g></g>
<text x="640" y="240" class="sans" font-size="11" font-weight="600" letter-spacing="0.88" fill="#85838F">SAVED / ACTIVE</text>
<g id="card-recommendation"><g clip-path="url(#c141)" data-media="desert"><rect x="640" y="260" width="240" height="320" fill="url(#g142)"/><circle cx="712" cy="372" r="28.8" fill="#FFF1D0" opacity="0.9"/><path d="M640 484.0 Q724.0 426.4 808.0 490.4 T880 468.0 V580 H640Z" fill="#B5532F"/><path d="M640 532.0 Q760.0 490.4 880 541.6 V580 H640Z" fill="#8A3A22"/></g><rect x="640" y="260" width="240" height="320" rx="16" fill="url(#g143)"/><rect x="640" y="260" width="240" height="320" rx="16" fill="none" stroke="rgba(255,255,255,.08)" stroke-width="1"/><rect x="652" y="272" width="209.59" height="28" rx="14" fill="rgba(37,26,46,.86)"/><g transform="translate(660 278) scale(0.6667)" fill="none" stroke="#DDBEF0" stroke-width="2.625" stroke-linecap="round" stroke-linejoin="round" data-icon="personalization"><path d="M11 3.5c.6 4.3 2.2 5.9 6.5 6.5-4.3.6-5.9 2.2-6.5 6.5-.6-4.3-2.2-5.9-6.5-6.5 4.3-.6 5.9-2.2 6.5-6.5z"/><path d="M18.5 15.5c.2 1.3.7 1.8 2 2-1.3.2-1.8.7-2 2-.2-1.3-.7-1.8-2-2 1.3-.2 1.8-.7 2-2z"/></g><text x="682" y="290.5" class="sans" font-size="12" font-weight="600" fill="#DDBEF0">Because you saved Jaisalmer</text><text x="656" y="513" class="sans" font-size="19" font-weight="700" letter-spacing="-0.19" fill="#FFFFFF">Desert camps that</text><text x="656" y="536" class="sans" font-size="19" font-weight="700" letter-spacing="-0.19" fill="#FFFFFF">open after the rains</text><text x="656" y="562" class="sans tnum" font-size="12" font-weight="500" letter-spacing="0.12" fill="rgba(255,255,255,.72)">12 stays · from ₹3,800</text><g transform="translate(846 548) scale(0.8333)" fill="none" stroke="rgba(255,255,255,.8)" stroke-width="2.1" stroke-linecap="round" stroke-linejoin="round" data-icon="more"><circle cx="6" cy="12" r="1.6" fill="rgba(255,255,255,.8)"/><circle cx="12" cy="12" r="1.6" fill="rgba(255,255,255,.8)"/><circle cx="18" cy="12" r="1.6" fill="rgba(255,255,255,.8)"/></g></g>
<g id="toast"><rect x="640" y="600" width="162.4" height="48" rx="24" fill="#2A2A33"/><g transform="translate(656 614) scale(0.8333)" fill="none" stroke="#2FD08A" stroke-width="2.1" stroke-linecap="round" stroke-linejoin="round" data-icon="check"><path d="M5 12.5 10 17.5 19.5 7"/></g><text x="686" y="629" class="sans" font-size="13" font-weight="500" fill="#FFFFFF">Saved</text><text x="784.4" y="629" class="sans" font-size="14" font-weight="600" letter-spacing="-0.07" text-anchor="end" fill="#FF4D7D">Undo</text></g>
<text x="928" y="240" class="sans" font-size="11" font-weight="600" letter-spacing="0.88" fill="#85838F">LOADING</text>
<rect x="928" y="260" width="240" height="320" rx="16" fill="#2A2A33"/>
<line x1="64" y1="760" x2="1536" y2="760" stroke="rgba(255, 255, 255, 0.08)" stroke-width="1" stroke-linecap="butt"/>
<text x="64" y="800" class="sans" font-size="13" font-weight="400" fill="#B8B8C2">Dimensions: 240 × 320 (3:4) in rails</text>
<text x="64" y="824" class="sans" font-size="13" font-weight="400" fill="#B8B8C2">Ratio: 3:4 full-bleed · Radius: 16 · Padding: 16</text>
</svg>