<svg xmlns="http://www.w3.org/2000/svg" width="1600" height="1620" viewBox="0 0 1600 1620" role="img" aria-labelledby="t d">
<title id="t">Card catalogue</title>
<desc id="d">Ten card types from six anatomies. Featured = A; vertical = B; horizontal = C. News and media cards are B variants with a source row and a video control. · Wake, A Glance-inspired design system. Original vector artwork; not a Glance asset.</desc>
<defs><style>.sans{font-family:Inter, 'Helvetica Neue', Arial, sans-serif;}.disp{font-family:'Instrument Serif', 'Times New Roman', Georgia, serif;}.tnum{font-variant-numeric:tabular-nums;}</style><clipPath id="c155"><rect x="64" y="250" width="358" height="201.38" rx="16"/></clipPath><linearGradient id="g156" x1="0" y1="0" x2="0" y2="1"><stop offset="0" stop-color="#1D2B3A"/><stop offset="1" stop-color="#3C5470"/></linearGradient><clipPath id="c157"><rect x="470" y="250" width="358" height="201.38" rx="16"/></clipPath><linearGradient id="g158" x1="0" y1="0" x2="0" y2="1"><stop offset="0" stop-color="#12051F"/><stop offset="1" stop-color="#3B0B3F"/></linearGradient><linearGradient id="g159" x1="0" y1="0" x2="0" y2="1"><stop offset="0" stop-color="#000" stop-opacity="0"/><stop offset="0.45" stop-color="#000" stop-opacity="0.0"/><stop offset="0.7" stop-color="#000" stop-opacity="0.35"/><stop offset="1" stop-color="#000" stop-opacity="0.7"/></linearGradient><clipPath id="c160"><rect x="876" y="250" width="72" height="72" rx="12"/></clipPath><linearGradient id="g161" x1="0" y1="0" x2="0" y2="1"><stop offset="0" stop-color="#F7C98B"/><stop offset="0.6" stop-color="#F29E5C"/><stop offset="1" stop-color="#C4623A"/></linearGradient><clipPath id="c162"><rect x="876" y="346" width="72" height="72" rx="12"/></clipPath><radialGradient id="r163" cx="0.5" cy="0.5" r="0.8"><stop offset="0" stop-color="#3A2A20"/><stop offset="1" stop-color="#120C08"/></radialGradient><clipPath id="c164"><rect x="64" y="660" width="171" height="213.75" rx="16"/></clipPath><linearGradient id="g165" x1="0" y1="0" x2="0" y2="1"><stop offset="0" stop-color="#F2A65A"/><stop offset="0.7" stop-color="#E25B63"/><stop offset="1" stop-color="#5A2A5E"/></linearGradient><clipPath id="c166"><rect x="283" y="660" width="171" height="213.75" rx="16"/></clipPath><clipPath id="c167"><rect x="502" y="660" width="171" height="213.75" rx="16"/></clipPath><clipPath id="c168"><rect x="740" y="660" width="300" height="300" rx="16"/></clipPath><linearGradient id="g169" x1="0" y1="0" x2="0" y2="1"><stop offset="0" stop-color="#1F2F52"/><stop offset="0.6" stop-color="#7C94BD"/><stop offset="1" stop-color="#D7E1EF"/></linearGradient><linearGradient id="g170" x1="0" y1="0" x2="0" y2="1"><stop offset="0" stop-color="#000" stop-opacity="0"/><stop offset="0.3" stop-color="#000" stop-opacity="0.0"/><stop offset="0.55" stop-color="#000" stop-opacity="0.35"/><stop offset="1" stop-color="#000" stop-opacity="0.85"/></linearGradient><clipPath id="c171"><rect x="1100" y="660" width="436" height="245.25" rx="16"/></clipPath><linearGradient id="g172" x1="0" y1="0" x2="0" y2="1"><stop offset="0" stop-color="#FBD3A0"/><stop offset="1" stop-color="#E9876B"/></linearGradient><clipPath id="c173"><rect x="64" y="1100" width="800" height="420" rx="24"/></clipPath><linearGradient id="g174" x1="0" y1="0" x2="0" y2="1"><stop offset="0" stop-color="#12051F"/><stop offset="1" stop-color="#3B0B3F"/></linearGradient><linearGradient id="g175" x1="0" y1="0" x2="0" y2="1"><stop offset="0" stop-color="#000" stop-opacity="0"/><stop offset="0.35" stop-color="#000" stop-opacity="0.0"/><stop offset="0.6" stop-color="#000" stop-opacity="0.35"/><stop offset="1" stop-color="#000" stop-opacity="0.85"/></linearGradient></defs>
<rect id="background" width="1600" height="1620" fill="#0C0C10"/>
<text x="64" y="84" class="sans" font-size="12" font-weight="600" letter-spacing="0.96" fill="#FF0049">CARDS · CATALOGUE</text>
<text x="64" y="148" class="disp" font-size="64" font-weight="400" letter-spacing="-0.32" fill="#FFFFFF">Card catalogue</text>
<text x="1016" y="76" class="sans" font-size="15" font-weight="400" fill="#B8B8C2">Ten card types from six anatomies. Featured = A; vertical = B; horizontal</text><text x="1016" y="98.5" class="sans" font-size="15" font-weight="400" fill="#B8B8C2">= C. News and media cards are B variants with a source row and a video</text><text x="1016" y="121" class="sans" font-size="15" font-weight="400" fill="#B8B8C2">control.</text>
<line x1="64" y1="184" x2="1536" y2="184" stroke="rgba(255, 255, 255, 0.08)" stroke-width="1" stroke-linecap="butt"/>
<line x1="64" y1="1564" x2="1536" y2="1564" stroke="rgba(255, 255, 255, 0.08)" stroke-width="1" stroke-linecap="butt"/>
<text x="64" y="1594" class="sans" font-size="12" font-weight="500" fill="#85838F">Wake · A Glance-inspired design system · v1.0</text>
<path d="M1399.65 1585.55 L1404.45 1590.35 L1399.65 1595.15 L1394.85 1590.35Z" fill="none" stroke="#85838F" stroke-width="1.2" stroke-linecap="round" stroke-linejoin="round"/><text x="1410.45" y="1594" class="sans" font-size="12" font-weight="500" fill="#85838F">Original interpretation</text>
<circle cx="1276.67" cy="1590.35" r="4.2" fill="none" stroke="#85838F" stroke-width="1.2"/><text x="1287.47" y="1594" class="sans" font-size="12" font-weight="500" fill="#85838F">Reconstruction</text>
<circle cx="1145.13" cy="1590.35" r="4.2" fill="none" stroke="#85838F" stroke-width="1.2"/><path d="M1145.13 1586.15 A4.200000000000001 4.200000000000001 0 0 0 1145.13 1594.55Z" fill="#85838F"/><text x="1155.93" y="1594" class="sans" font-size="12" font-weight="500" fill="#85838F">Strong inference</text>
<circle cx="1053.03" cy="1590.35" r="4.8" fill="#85838F"/><text x="1063.83" y="1594" class="sans" font-size="12" font-weight="500" fill="#85838F">Observed</text>
<g id="card-news"><g clip-path="url(#c155)" data-media="news"><rect x="64" y="250" width="358" height="201.38" fill="url(#g156)"/><rect x="106.96" y="300.34" width="107.4" height="100.69" fill="#0F1824" opacity="0.8"/><rect x="228.68" y="286.25" width="71.6" height="120.82" fill="#0F1824" opacity="0.7"/><rect x="314.6" y="314.44" width="64.44" height="90.62" fill="#0F1824" opacity="0.85"/><rect x="64" y="407.07" width="358" height="44.3" fill="#0A1119"/><circle cx="264.48" cy="374.85" r="10.07" fill="#FF0049" opacity="0.85"/></g><circle cx="74" cy="475.38" r="10" fill="#2A2A33"/><text x="74" y="479.38" class="sans" font-size="10" font-weight="600" letter-spacing="0.8" text-anchor="middle" fill="#FFFFFF">D</text><text x="92" y="479.38" class="sans tnum" font-size="12" font-weight="500" letter-spacing="0.12" fill="#85838F">The Daily Ledger · National · 18 min ago</text><text x="64" y="509.38" class="sans" font-size="18" font-weight="700" letter-spacing="-0.18" fill="#FFFFFF">Rail budget adds 40 new routes for the</text><text x="64" y="532.77" class="sans" font-size="18" font-weight="700" letter-spacing="-0.18" fill="#FFFFFF">festive season</text><g transform="translate(398 552.17) scale(0.8333)" fill="none" stroke="#85838F" stroke-width="2.1" stroke-linecap="round" stroke-linejoin="round" data-icon="share"><path d="M12 15V3.8"/><path d="M7.5 8.3 12 3.8l4.5 4.5"/><path d="M5 12.5V19a1.5 1.5 0 0 0 1.5 1.5h11A1.5 1.5 0 0 0 19 19v-6.5"/></g><g transform="translate(366 552.17) scale(0.8333)" fill="none" stroke="#85838F" stroke-width="2.1" stroke-linecap="round" stroke-linejoin="round" data-icon="bookmark"><path d="M7 3.5h10a1.5 1.5 0 0 1 1.5 1.5v15.5L12 16l-6.5 4.5V5A1.5 1.5 0 0 1 7 3.5z"/></g></g>
<text x="64" y="588.17" class="sans" font-size="12" font-weight="500" fill="#85838F">News card · B variant · 16:9 + source row</text>
<g id="card-video"><g clip-path="url(#c157)" data-media="concert"><rect x="470" y="250" width="358" height="201.38" fill="url(#g158)"/><path d="M559.5 250 L480.74 411.1 H638.26Z" fill="#FF0049" opacity="0.22"/><path d="M649.0 250 L570.24 411.1 H727.76Z" fill="#DDBEF0" opacity="0.22"/><path d="M738.5 250 L659.74 411.1 H817.26Z" fill="#FF7A45" opacity="0.22"/><rect x="541.6" y="360.76" width="214.8" height="8.05" fill="#000000" opacity="0.5"/><path d="M470 431.2375 a10.74 10.74 0 0 1 21.48 0a10.74 10.74 0 0 1 21.48 0a10.74 10.74 0 0 1 21.48 0a10.74 10.74 0 0 1 21.48 0a10.74 10.74 0 0 1 21.48 0a10.74 10.74 0 0 1 21.48 0a10.74 10.74 0 0 1 21.48 0a10.74 10.74 0 0 1 21.48 0a10.74 10.74 0 0 1 21.48 0a10.74 10.74 0 0 1 21.48 0a10.74 10.74 0 0 1 21.48 0a10.74 10.74 0 0 1 21.48 0a10.74 10.74 0 0 1 21.48 0a10.74 10.74 0 0 1 21.48 0a10.74 10.74 0 0 1 21.48 0a10.74 10.74 0 0 1 21.48 0a10.74 10.74 0 0 1 21.48 0 V451.375 H470Z" fill="#07020C"/></g><rect x="470" y="250" width="358" height="201.38" rx="16" fill="url(#g159)"/><circle cx="649" cy="350.69" r="28" fill="rgba(22,22,27,.56)"/><g transform="translate(638 338.69) scale(1.0)" fill="#FFFFFF" stroke="#FFFFFF" stroke-width="1.75" stroke-linecap="round" stroke-linejoin="round" data-icon="play"><path d="M7.5 5v14a.9.9 0 0 0 1.4.8l10.8-7a.9.9 0 0 0 0-1.6L8.9 4.2A.9.9 0 0 0 7.5 5z"/></g><g><rect x="482" y="262" width="52.36" height="22" rx="11.0" fill="#FF0049"/><circle cx="493" cy="273" r="3" fill="#FFFFFF"/><text x="501" y="276.8" class="sans" font-size="10.5" font-weight="600" letter-spacing="0.84" fill="#FFFFFF">LIVE</text></g><rect x="482" y="439.38" width="334" height="3" rx="1.5" fill="rgba(255,255,255,.32)"/><rect x="482" y="439.38" width="116.9" height="3" rx="1.5" fill="#FF0049"/><text x="470" y="475.38" class="sans" font-size="17" font-weight="600" letter-spacing="-0.17" fill="#FFFFFF">Front row at the monsoon music fest</text><text x="470" y="499.48" class="sans tnum" font-size="12" font-weight="500" letter-spacing="0.12" fill="#85838F">Live now · 12.4k watching</text></g>
<text x="470" y="531.48" class="sans" font-size="12" font-weight="500" fill="#85838F">Media card · video · B variant</text>
<g id="card-compact"><g clip-path="url(#c160)" data-media="desert"><rect x="876" y="250" width="72" height="72" fill="url(#g161)"/><circle cx="897.6" cy="275.2" r="8.64" fill="#FFF1D0" opacity="0.9"/><path d="M876 300.4 Q901.2 287.44 926.4 301.84 T948 296.8 V322 H876Z" fill="#B5532F"/><path d="M876 311.2 Q912.0 301.84 948 313.36 V322 H876Z" fill="#8A3A22"/></g><text x="962" y="268" class="sans" font-size="15" font-weight="600" fill="#FFFFFF">Sam sand dunes: camps reopen 1 Oct</text><text x="962" y="290.25" class="sans tnum" font-size="12" font-weight="500" letter-spacing="0.12" fill="#85838F">Rajasthan · 5 min</text><g transform="translate(1514 275) scale(0.9167)" fill="none" stroke="#B8B8C2" stroke-width="1.909" stroke-linecap="round" stroke-linejoin="round" data-icon="bookmark"><path d="M7 3.5h10a1.5 1.5 0 0 1 1.5 1.5v15.5L12 16l-6.5 4.5V5A1.5 1.5 0 0 1 7 3.5z"/></g></g>
<g id="card-compact"><g clip-path="url(#c162)" data-media="food"><rect x="876" y="346" width="72" height="72" fill="url(#r163)"/><circle cx="912" cy="382" r="24.48" fill="#F3EDE4"/><circle cx="912" cy="382" r="19.58" fill="#E0A33A"/><circle cx="918.39" cy="390.19" r="3.01" fill="#C0392B" opacity="0.95"/><circle cx="912.38" cy="373.47" r="3.4" fill="#C0392B" opacity="0.95"/><circle cx="917.59" cy="392.08" r="3.22" fill="#F4D35E" opacity="0.95"/><circle cx="914.76" cy="378.36" r="2.01" fill="#7A3E1D" opacity="0.95"/><circle cx="912.31" cy="384.02" r="2.86" fill="#3E8E41" opacity="0.95"/><circle cx="915.23" cy="375.69" r="2.21" fill="#C0392B" opacity="0.95"/><circle cx="908.45" cy="383.33" r="3.4" fill="#F4D35E" opacity="0.95"/><circle cx="908" cy="371.65" r="1.98" fill="#F4D35E" opacity="0.95"/><circle cx="904.89" cy="385.78" r="3.28" fill="#3E8E41" opacity="0.95"/></g><text x="962" y="364" class="sans" font-size="15" font-weight="600" fill="#FFFFFF">The ₹99 thali everyone is queueing for</text><text x="962" y="386.25" class="sans tnum" font-size="12" font-weight="500" letter-spacing="0.12" fill="#85838F">Food · Pune · 8 min</text><g transform="translate(1514 371) scale(0.9167)" fill="none" stroke="#B8B8C2" stroke-width="1.909" stroke-linecap="round" stroke-linejoin="round" data-icon="bookmark"><path d="M7 3.5h10a1.5 1.5 0 0 1 1.5 1.5v15.5L12 16l-6.5 4.5V5A1.5 1.5 0 0 1 7 3.5z"/></g></g>
<text x="876" y="450" class="sans" font-size="12" font-weight="500" fill="#85838F">Horizontal card · C</text>
<g id="card-standard"><g clip-path="url(#c164)" data-media="beach-city"><rect x="64" y="660" width="171" height="213.75" fill="url(#g165)"/><rect x="64" y="756.63" width="17.3" height="117.12" fill="#3A1838"/><rect x="68" y="764.63" width="3" height="5" fill="#FFD27A" opacity="0.84"/><rect x="68" y="830.63" width="3" height="5" fill="#FFD27A" opacity="0.84"/><rect x="68" y="841.63" width="3" height="5" fill="#FFD27A" opacity="0.61"/><rect x="83.3" y="781.9" width="19.83" height="91.85" fill="#3A1838"/><rect x="87.3" y="800.9" width="3" height="5" fill="#FFD27A" opacity="0.76"/><rect x="105.13" y="810.11" width="13.29" height="63.64" fill="#3A1838"/><rect x="120.42" y="779.11" width="11.03" height="94.64" fill="#3A1838"/><rect x="133.45" y="795.73" width="20.18" height="78.02" fill="#3A1838"/><rect x="137.45" y="836.73" width="3" height="5" fill="#FFD27A" opacity="0.72"/><rect x="137.45" y="847.73" width="3" height="5" fill="#FFD27A" opacity="0.83"/><rect x="155.63" y="813.58" width="15.57" height="60.17" fill="#3A1838"/><rect x="159.63" y="821.58" width="3" height="5" fill="#FFD27A" opacity="0.64"/><rect x="159.63" y="832.58" width="3" height="5" fill="#FFD27A" opacity="0.9"/><rect x="173.2" y="807.76" width="18.57" height="65.99" fill="#3A1838"/><rect x="177.2" y="859.76" width="3" height="5" fill="#FFD27A" opacity="0.65"/><rect x="193.77" y="815.13" width="16.45" height="58.62" fill="#3A1838"/><rect x="197.77" y="823.13" width="3" height="5" fill="#FFD27A" opacity="0.8"/><rect x="197.77" y="845.13" width="3" height="5" fill="#FFD27A" opacity="0.51"/><rect x="197.77" y="856.13" width="3" height="5" fill="#FFD27A" opacity="0.65"/><rect x="212.22" y="754.55" width="17.24" height="119.2" fill="#3A1838"/><rect x="216.22" y="795.55" width="3" height="5" fill="#FFD27A" opacity="0.63"/><rect x="216.22" y="806.55" width="3" height="5" fill="#FFD27A" opacity="0.46"/><rect x="216.22" y="817.55" width="3" height="5" fill="#FFD27A" opacity="0.58"/><rect x="216.22" y="839.55" width="3" height="5" fill="#FFD27A" opacity="0.48"/><rect x="216.22" y="850.55" width="3" height="5" fill="#FFD27A" opacity="0.6"/><rect x="231.46" y="777.8" width="21.26" height="95.95" fill="#3A1838"/><rect x="235.46" y="796.8" width="3" height="5" fill="#FFD27A" opacity="0.76"/></g><rect x="64" y="660" width="171" height="213.75" rx="16" fill="none" stroke="rgba(255,255,255,.08)" stroke-width="1"/><text x="64" y="895.75" class="sans" font-size="11" font-weight="600" letter-spacing="0.88" fill="#85838F">TRAVEL</text><text x="64" y="917.75" class="sans" font-size="17" font-weight="600" letter-spacing="-0.17" fill="#FFFFFF">Panjim after dark</text><text x="64" y="943.85" class="sans tnum" font-size="12" font-weight="500" letter-spacing="0.12" fill="#85838F">6 min</text></g>
<text x="64" y="971.85" class="sans" font-size="12" font-weight="500" fill="#85838F">Vertical card · B at 4:5</text>
<g id="card-commerce"><g clip-path="url(#c166)" data-media="bag"><rect x="283" y="660" width="171" height="213.75" fill="#F1EEEA"/><ellipse cx="368.5" cy="835.27" rx="51.3" ry="7.48" fill="#000" opacity=".12"/><path d="M351.4 736.95 Q368.5 685.65 385.6 736.95" fill="none" stroke="#2B2230" stroke-width="3.078" stroke-linecap="round" stroke-linejoin="round"/><rect x="330.88" y="732.67" width="75.24" height="94.05" rx="6.84" fill="#C79A6A"/><rect x="330.88" y="732.67" width="75.24" height="17.1" rx="3.42" fill="#B0845A"/></g><circle cx="428" cy="686" r="16" fill="rgba(255,255,255,.92)"/><g transform="translate(418 676) scale(0.8333)" fill="none" stroke="#0C0C10" stroke-width="2.1" stroke-linecap="round" stroke-linejoin="round" data-icon="like"><path d="M12 20.2s-7.8-4.7-7.8-10.3A4.4 4.4 0 0 1 12 7.2a4.4 4.4 0 0 1 7.8 2.7c0 5.6-7.8 10.3-7.8 10.3z"/></g><text x="283" y="893.75" class="sans" font-size="12" font-weight="600" fill="#85838F">Loom &amp; Co</text><text x="283" y="912.75" class="sans" font-size="13" font-weight="500" fill="#FFFFFF">Canvas weekender tote</text><text x="283" y="938.3" class="sans tnum" font-size="17" font-weight="700" letter-spacing="-0.17" fill="#FFFFFF">₹2,190</text><circle cx="286" cy="953.3" r="3" fill="#2FD08A"/><text x="294" y="957.3" class="sans" font-size="11" font-weight="500" fill="#85838F">Price checked 9:41</text></g>
<text x="283" y="984.3" class="sans" font-size="12" font-weight="500" fill="#85838F">Commerce · D, no discount</text>
<g id="card-commerce"><g clip-path="url(#c167)" data-media="watch"><rect x="502" y="660" width="171" height="213.75" fill="#F1EEEA"/><ellipse cx="587.5" cy="835.27" rx="51.3" ry="7.48" fill="#000" opacity=".12"/><rect x="580.66" y="685.65" width="13.68" height="149.62" rx="4" fill="#2B2230"/><circle cx="587.5" cy="760.46" r="29.07" fill="#2B2230"/><circle cx="587.5" cy="760.46" r="23.94" fill="#F7F4EF"/><line x1="587.5" y1="760.46" x2="587.5" y2="743.36" stroke="#2B2230" stroke-width="2" stroke-linecap="round"/><line x1="587.5" y1="760.46" x2="597.76" y2="766.88" stroke="#FF0049" stroke-width="2" stroke-linecap="round"/></g><g><rect x="512" y="670" width="105.52" height="22" rx="11.0" fill="#FFF3DC"/><g transform="translate(519 674.5) scale(0.5417)" fill="none" stroke="#9A5B00" stroke-width="3.231" stroke-linecap="round" stroke-linejoin="round" data-icon="alert"><path d="M12 3.8 21 19.5H3z"/><path d="M12 10v4.5"/><circle cx="12" cy="17" r="1.6" fill="#9A5B00"/></g><text x="535" y="684.8" class="sans" font-size="10.5" font-weight="600" letter-spacing="0.84" fill="#9A5B00">ONLY 3 LEFT</text></g><circle cx="647" cy="686" r="16" fill="rgba(255,255,255,.92)"/><g transform="translate(637 676) scale(0.8333)" fill="none" stroke="#0C0C10" stroke-width="2.1" stroke-linecap="round" stroke-linejoin="round" data-icon="like"><path d="M12 20.2s-7.8-4.7-7.8-10.3A4.4 4.4 0 0 1 12 7.2a4.4 4.4 0 0 1 7.8 2.7c0 5.6-7.8 10.3-7.8 10.3z"/></g><text x="502" y="893.75" class="sans" font-size="12" font-weight="600" fill="#85838F">Arc</text><text x="502" y="912.75" class="sans" font-size="13" font-weight="500" fill="#FFFFFF">Field watch, 38mm</text><text x="502" y="938.3" class="sans tnum" font-size="17" font-weight="700" letter-spacing="-0.17" fill="#FFFFFF">₹8,450</text><text x="568.79" y="938.3" class="sans tnum" font-size="12" font-weight="500" letter-spacing="0.12" fill="#85838F">₹9,990</text><line x1="568.79" y1="934.3" x2="609.64" y2="934.3" stroke="#85838F" stroke-width="1" stroke-linecap="butt"/><text x="615.64" y="938.3" class="sans" font-size="12" font-weight="600" letter-spacing="0.12" fill="#2FD08A">15% off</text><circle cx="505" cy="953.3" r="3" fill="#2FD08A"/><text x="513" y="957.3" class="sans" font-size="11" font-weight="500" fill="#85838F">Price checked 9:41</text></g>
<text x="502" y="984.3" class="sans" font-size="12" font-weight="500" fill="#85838F">Commerce · D, scarcity</text>
<g id="card-recommendation"><g clip-path="url(#c168)" data-media="mountain"><rect x="740" y="660" width="300" height="300" fill="url(#g169)"/><path d="M740 885.0 L830.0 765.0 L890.0 840.0 L956.0 735.0 L1040 870.0 V960 H740Z" fill="#34466E"/><path d="M938.0 762.0 L956.0 735.0 L977.0 768.0 L962.0 759.0 L950.0 771.0Z" fill="#F2F5FA"/><path d="M740 915.0 Q860.0 870.0 1040 918.0 V960 H740Z" fill="#1C2742"/></g><rect x="740" y="660" width="300" height="300" rx="16" fill="url(#g170)"/><rect x="740" y="660" width="300" height="300" rx="16" fill="none" stroke="rgba(255,255,255,.08)" stroke-width="1"/><rect x="752" y="672" width="200.57" height="28" rx="14" fill="rgba(37,26,46,.86)"/><g transform="translate(760 678) scale(0.6667)" fill="none" stroke="#DDBEF0" stroke-width="2.625" stroke-linecap="round" stroke-linejoin="round" data-icon="personalization"><path d="M11 3.5c.6 4.3 2.2 5.9 6.5 6.5-4.3.6-5.9 2.2-6.5 6.5-.6-4.3-2.2-5.9-6.5-6.5 4.3-.6 5.9-2.2 6.5-6.5z"/><path d="M18.5 15.5c.2 1.3.7 1.8 2 2-1.3.2-1.8.7-2 2-.2-1.3-.7-1.8-2-2 1.3-.2 1.8-.7 2-2z"/></g><text x="782" y="690.5" class="sans" font-size="12" font-weight="600" fill="#DDBEF0">Popular with people like you</text><text x="756" y="893" class="sans" font-size="19" font-weight="700" letter-spacing="-0.19" fill="#FFFFFF">Sikkim in the shoulder</text><text x="756" y="916" class="sans" font-size="19" font-weight="700" letter-spacing="-0.19" fill="#FFFFFF">season</text><text x="756" y="942" class="sans tnum" font-size="12" font-weight="500" letter-spacing="0.12" fill="rgba(255,255,255,.72)">22 guides · 3–5 days</text><g transform="translate(1006 928) scale(0.8333)" fill="none" stroke="rgba(255,255,255,.8)" stroke-width="2.1" stroke-linecap="round" stroke-linejoin="round" data-icon="more"><circle cx="6" cy="12" r="1.6" fill="rgba(255,255,255,.8)"/><circle cx="12" cy="12" r="1.6" fill="rgba(255,255,255,.8)"/><circle cx="18" cy="12" r="1.6" fill="rgba(255,255,255,.8)"/></g></g>
<text x="740" y="984" class="sans" font-size="12" font-weight="500" fill="#85838F">Recommendation · E, square</text>
<g id="card-editorial"><g clip-path="url(#c171)" data-media="temple"><rect x="1100" y="660" width="436" height="245.25" fill="url(#g172)"/><path d="M1187.2 868.4625 V794.8875 H1448.8 V868.4625Z" fill="#7A2E3A"/><path d="M1265.68 794.8875 Q1318.0 709.05 1370.32 794.8875Z" fill="#7A2E3A"/><path d="M1187.2 794.8875 Q1222.08 758.1 1252.6 794.8875Z" fill="#8F3A45"/><path d="M1383.4 794.8875 Q1413.92 758.1 1448.8 794.8875Z" fill="#8F3A45"/><rect x="1296.2" y="821.87" width="43.6" height="46.6" rx="21.8" fill="#3A1219"/><rect x="1100" y="868.46" width="436" height="36.79" fill="#C9765A"/></g><rect x="1100" y="660" width="436" height="245.25" rx="16" fill="none" stroke="rgba(255,255,255,.08)" stroke-width="1"/><text x="1100" y="931.25" class="sans" font-size="11" font-weight="600" letter-spacing="0.88" fill="#FF4D7D">THE LONG READ</text><text x="1100" y="965.25" class="disp" font-size="30" font-weight="400" letter-spacing="-0.15" fill="#FFFFFF">Forty-eight hours in a city that wakes</text><text x="1100" y="997.65" class="disp" font-size="30" font-weight="400" letter-spacing="-0.15" fill="#FFFFFF">before you do</text><text x="1100" y="1034.05" class="sans" font-size="13" font-weight="400" fill="#B8B8C2">A slow itinerary for Varanasi: dawn on the ghats, lunch in the lanes,</text><text x="1100" y="1052.9" class="sans" font-size="13" font-weight="400" fill="#B8B8C2">and the ceremony worth staying up for.</text><text x="1100" y="1081.75" class="sans tnum" font-size="12" font-weight="500" letter-spacing="0.12" fill="#85838F">Words by Meera Rao · 9 min read</text></g>
<text x="1100" y="1103.75" class="sans" font-size="12" font-weight="500" fill="#85838F">Editorial · F at 16:9</text>
<g id="card-hero"><g clip-path="url(#c173)" data-media="concert"><rect x="64" y="1100" width="800" height="420" fill="url(#g174)"/><path d="M264.0 1100 L88.0 1436.0 H440.0Z" fill="#FF0049" opacity="0.22"/><path d="M464.0 1100 L288.0 1436.0 H640.0Z" fill="#DDBEF0" opacity="0.22"/><path d="M664.0 1100 L488.0 1436.0 H840.0Z" fill="#FF7A45" opacity="0.22"/><rect x="224" y="1331" width="480" height="16.8" fill="#000000" opacity="0.5"/><path d="M64 1478.0 a24.0 24.0 0 0 1 48.0 0a24.0 24.0 0 0 1 48.0 0a24.0 24.0 0 0 1 48.0 0a24.0 24.0 0 0 1 48.0 0a24.0 24.0 0 0 1 48.0 0a24.0 24.0 0 0 1 48.0 0a24.0 24.0 0 0 1 48.0 0a24.0 24.0 0 0 1 48.0 0a24.0 24.0 0 0 1 48.0 0a24.0 24.0 0 0 1 48.0 0a24.0 24.0 0 0 1 48.0 0a24.0 24.0 0 0 1 48.0 0a24.0 24.0 0 0 1 48.0 0a24.0 24.0 0 0 1 48.0 0a24.0 24.0 0 0 1 48.0 0a24.0 24.0 0 0 1 48.0 0a24.0 24.0 0 0 1 48.0 0 V1520 H64Z" fill="#07020C"/></g><rect x="64" y="1100" width="800" height="420" rx="24" fill="url(#g175)"/><rect x="64" y="1100" width="800" height="420" rx="24" fill="none" stroke="rgba(255,255,255,.08)" stroke-width="1"/><g><rect x="80" y="1116" width="52.36" height="24" rx="12.0" fill="#FF0049"/><circle cx="91" cy="1128" r="3" fill="#FFFFFF"/><text x="99" y="1131.8" class="sans" font-size="10.5" font-weight="600" letter-spacing="0.84" fill="#FFFFFF">LIVE</text></g><g><circle cx="828" cy="1132" r="20" fill="rgba(22,22,27,.56)"/><g transform="translate(818 1122) scale(0.8333)" fill="none" stroke="#FFFFFF" stroke-width="2.1" stroke-linecap="round" stroke-linejoin="round" data-icon="bookmark"><path d="M7 3.5h10a1.5 1.5 0 0 1 1.5 1.5v15.5L12 16l-6.5 4.5V5A1.5 1.5 0 0 1 7 3.5z"/></g></g><g><rect x="84" y="1456" width="156.17" height="44" rx="22.0" fill="#E6003F"/><text x="104" y="1483.4" class="sans" font-size="15" font-weight="600" letter-spacing="-0.07" fill="#FFFFFF">Set reminder</text><g transform="translate(202.17 1469) scale(0.75)" fill="none" stroke="#FFFFFF" stroke-width="2.333" stroke-linecap="round" stroke-linejoin="round" data-icon="arrow"><path d="M7 17 17 7"/><path d="M8.5 7H17v8.5"/></g></g><g><circle cx="822" cy="1478" r="22" fill="rgba(22,22,27,.56)"/><g transform="translate(812 1468) scale(0.8333)" fill="none" stroke="#FFFFFF" stroke-width="2.1" stroke-linecap="round" stroke-linejoin="round" data-icon="share"><path d="M12 15V3.8"/><path d="M7.5 8.3 12 3.8l4.5 4.5"/><path d="M5 12.5V19a1.5 1.5 0 0 0 1.5 1.5h11A1.5 1.5 0 0 0 19 19v-6.5"/></g></g><text x="84" y="1438" class="sans tnum" font-size="12" font-weight="500" letter-spacing="0.12" fill="rgba(255,255,255,.72)">Wake Live · starts 8pm</text><text x="84" y="1412" class="sans" font-size="26" font-weight="700" letter-spacing="-0.52" fill="#FFFFFF">Monsoon fest: the whole lineup, live tonight</text><text x="84" y="1382" class="sans" font-size="11" font-weight="600" letter-spacing="0.88" fill="rgba(255,255,255,.8)">MUSIC · LIVE</text></g>
<text x="64" y="1544" class="sans" font-size="12" font-weight="500" fill="#85838F">Featured · A at 16:9 (desktop)</text>
</svg>