<svg xmlns="http://www.w3.org/2000/svg" width="1920" height="1080" viewBox="0 0 1920 1080" role="img" aria-labelledby="t d">
<title id="t">Title slide</title>
<desc id="d">Cover visual · Wake, A Glance-inspired design system. Original vector artwork; not a Glance asset.</desc>
<defs><style>.sans{font-family:Inter, 'Helvetica Neue', Arial, sans-serif;}.disp{font-family:'Instrument Serif', 'Times New Roman', Georgia, serif;}.tnum{font-variant-numeric:tabular-nums;}</style><radialGradient id="r1" cx="0.82" cy="0.3" r="0.55"><stop offset="0" stop-color="#FF0049" stop-opacity="0.28"/><stop offset="1" stop-color="#FF0049" stop-opacity="0"/></radialGradient><clipPath id="c2"><rect x="0" y="0" width="390" height="844" rx="54"/></clipPath><clipPath id="c3"><rect x="0" y="0" width="390" height="844" rx="0"/></clipPath><linearGradient id="g4" x1="0" y1="0" x2="0" y2="1"><stop offset="0" stop-color="#9FD8F0"/><stop offset="0.5" stop-color="#57B8D6"/><stop offset="0.52" stop-color="#1E8FA8"/><stop offset="1" stop-color="#0B4F66"/></linearGradient><linearGradient id="g5" x1="0" y1="0" x2="0" y2="1"><stop offset="0" stop-color="#000" stop-opacity="0.5"/><stop offset="1" stop-color="#000" stop-opacity="0"/></linearGradient><linearGradient id="g6" x1="0" y1="0" x2="0" y2="1"><stop offset="0" stop-color="#000" stop-opacity="0"/><stop offset="0.42" stop-color="#000" stop-opacity="0.0"/><stop offset="0.6699999999999999" stop-color="#000" stop-opacity="0.35"/><stop offset="1" stop-color="#000" stop-opacity="0.9"/></linearGradient><clipPath id="c7"><rect x="0" y="0" width="390" height="844" rx="54"/></clipPath><clipPath id="c9"><rect x="16" y="244" width="358" height="420" rx="24"/></clipPath><linearGradient id="g10" x1="0" y1="0" x2="0" y2="1"><stop offset="0" stop-color="#9FD8F0"/><stop offset="0.5" stop-color="#57B8D6"/><stop offset="0.52" stop-color="#1E8FA8"/><stop offset="1" stop-color="#0B4F66"/></linearGradient><linearGradient id="g11" x1="0" y1="0" x2="0" y2="1"><stop offset="0" stop-color="#000" stop-opacity="0"/><stop offset="0.35" stop-color="#000" stop-opacity="0.0"/><stop offset="0.6" stop-color="#000" stop-opacity="0.35"/><stop offset="1" stop-color="#000" stop-opacity="0.85"/></linearGradient><clipPath id="c12"><rect x="16" y="740" width="240" height="300" rx="16"/></clipPath><linearGradient id="g13" x1="0" y1="0" x2="0" y2="1"><stop offset="0" stop-color="#F2A65A"/><stop offset="0.7" stop-color="#E25B63"/><stop offset="1" stop-color="#5A2A5E"/></linearGradient><linearGradient id="g14" x1="0" y1="0" x2="0" y2="1"><stop offset="0" stop-color="#000" stop-opacity="0"/><stop offset="0.3" stop-color="#000" stop-opacity="0.0"/><stop offset="0.55" stop-color="#000" stop-opacity="0.35"/><stop offset="1" stop-color="#000" stop-opacity="0.85"/></linearGradient><clipPath id="c15"><rect x="268" y="740" width="240" height="300" rx="16"/></clipPath><linearGradient id="g16" x1="0" y1="0" x2="0" y2="1"><stop offset="0" stop-color="#F7C98B"/><stop offset="0.6" stop-color="#F29E5C"/><stop offset="1" stop-color="#C4623A"/></linearGradient><linearGradient id="g17" x1="0" y1="0" x2="0" y2="1"><stop offset="0" stop-color="#000" stop-opacity="0"/><stop offset="0.3" stop-color="#000" stop-opacity="0.0"/><stop offset="0.55" stop-color="#000" stop-opacity="0.35"/><stop offset="1" stop-color="#000" stop-opacity="0.85"/></linearGradient></defs>
<rect id="background" width="1920" height="1080" fill="#0C0C10"/>
<text x="120" y="1020" class="sans" font-size="16" font-weight="500" letter-spacing="0.16" fill="#85838F">Wake · A Glance-inspired design system</text>
<rect x="0" y="0" width="1920" height="1080" fill="url(#r1)"/>
<text x="120" y="190" class="sans" font-size="16" font-weight="600" letter-spacing="1.28" fill="#FF0049">PRODUCT CASE STUDY · DESIGN SYSTEM</text>
<g id="wordmark"><text x="120" y="440" class="disp" font-size="200" font-weight="400" letter-spacing="-2.0" font-style="italic" fill="#FFFFFF">wake</text><circle cx="495.6" cy="396" r="24" fill="#FF0049"/></g>
<text x="120" y="540" class="disp" font-size="56" font-weight="400" letter-spacing="-0.28" fill="#FFFFFF">A Glance-inspired design system</text>
<text x="120" y="610" class="sans" font-size="24" font-weight="400" fill="#B8B8C2">Principles, tokens, components and screens for a wake-first,</text><text x="120" y="646" class="sans" font-size="24" font-weight="400" fill="#B8B8C2">media-led, trustworthy product.</text>
<text x="120" y="780" class="sans tnum" font-size="12" font-weight="500" letter-spacing="0.12" fill="#85838F">v1.0 · September 2026 · Original artwork · not a Glance asset</text>
<g transform="translate(1120 150) scale(0.92)"><g><rect x="-10" y="-10" width="410" height="864" rx="64" fill="#1B1B20" stroke="#2E2E36" stroke-width="1"/><g clip-path="url(#c2)"><rect x="0" y="0" width="390" height="844" fill="#000000"/><g clip-path="url(#c3)" data-media="lagoon"><rect x="0" y="0" width="390" height="844" fill="url(#g4)"/><circle cx="312" cy="151.92" r="27.3" fill="#FFF6DA" opacity="0.9"/><path d="M0 658.32 Q195.0 607.68 390 675.2 V844 H0Z" fill="#EBD2A6"/><path d="M85.8 675.2 Q97.5 464.20000000000005 117.0 320.72" fill="none" stroke="#1B2B24" stroke-width="4.68" stroke-linecap="round" stroke-linejoin="round"/><path d="M117.0 320.72 Q129.675 278.52000000000004 142.35000000000002 293.74447355235606" fill="none" stroke="#1B2B24" stroke-width="3.9" stroke-linecap="round" stroke-linejoin="round"/><path d="M117.0 320.72 Q140.82120793692278 278.52000000000004 164.64241587384555 320.28009994198817" fill="none" stroke="#1B2B24" stroke-width="3.9" stroke-linecap="round" stroke-linejoin="round"/><path d="M117.0 320.72 Q140.82120793692278 278.52000000000004 164.64241587384555 354.9199000580119" fill="none" stroke="#1B2B24" stroke-width="3.9" stroke-linecap="round" stroke-linejoin="round"/><path d="M117.0 320.72 Q129.675 278.52000000000004 142.35000000000002 381.455526447644" fill="none" stroke="#1B2B24" stroke-width="3.9" stroke-linecap="round" stroke-linejoin="round"/><path d="M117.0 320.72 Q108.3297893666943 278.52000000000004 99.6595787333886 385.1860343165984" fill="none" stroke="#1B2B24" stroke-width="3.9" stroke-linecap="round" stroke-linejoin="round"/><path d="M117.0 320.72 Q93.17879206307722 278.52000000000004 69.35758412615445 354.9199000580119" fill="none" stroke="#1B2B24" stroke-width="3.9" stroke-linecap="round" stroke-linejoin="round"/><line x1="136.5" y1="489.52" x2="214.5" y2="489.52" stroke="#FFFFFF" stroke-width="1.2" stroke-linecap="round" opacity="0.35"/><line x1="156" y1="527.5" x2="237.9" y2="527.5" stroke="#FFFFFF" stroke-width="1.2" stroke-linecap="round" opacity="0.35"/><line x1="175.5" y1="565.48" x2="261.3" y2="565.48" stroke="#FFFFFF" stroke-width="1.2" stroke-linecap="round" opacity="0.35"/><line x1="195" y1="603.46" x2="284.7" y2="603.46" stroke="#FFFFFF" stroke-width="1.2" stroke-linecap="round" opacity="0.35"/></g><rect x="0" y="0" width="390" height="260" rx="0" fill="url(#g5)"/><rect x="0" y="0" width="390" height="844" rx="0" fill="url(#g6)"/><text x="28" y="30" class="sans tnum" font-size="15" font-weight="600" letter-spacing="-0.07" fill="#FFFFFF">9:41</text><rect x="335" y="20" width="25" height="12" rx="3.5" fill="none" stroke="#FFFFFF" stroke-width="1" opacity="0.9"/><rect x="337" y="22" width="18" height="8" rx="2" fill="#FFFFFF"/><rect x="361.5" y="24" width="1.5" height="4" rx="1" fill="#FFFFFF" opacity="0.6"/><rect x="302" y="27.5" width="3" height="2.5" rx="1" fill="#FFFFFF"/><rect x="307" y="25" width="3" height="5" rx="1" fill="#FFFFFF"/><rect x="312" y="22.5" width="3" height="7.5" rx="1" fill="#FFFFFF"/><rect x="317" y="20" width="3" height="10" rx="1" fill="#FFFFFF"/><path d="M320 25 a8 8 0 0 1 11 0 M322.5 28 a4 4 0 0 1 6 0" fill="none" stroke="#FFFFFF" stroke-width="1.6" stroke-linecap="round" stroke-linejoin="round"/><g transform="translate(186 60) scale(0.75)" fill="none" stroke="#FFFFFF" stroke-width="2.333" stroke-linecap="round" stroke-linejoin="round" data-icon="lock"><path d="M7 10.5h10a2 2 0 0 1 2 2v6a2 2 0 0 1-2 2H7a2 2 0 0 1-2-2v-6a2 2 0 0 1 2-2z"/><path d="M8 10.5V8a4 4 0 0 1 8 0v2.5"/></g><text x="195" y="112" class="sans" font-size="17" font-weight="600" letter-spacing="-0.09" text-anchor="middle" fill="#FFFFFF">Wednesday, 30 September</text><text x="195" y="200" class="sans tnum" font-size="96" font-weight="600" letter-spacing="-2.88" text-anchor="middle" fill="#FFFFFF">9:41</text><g><rect x="20" y="424" width="66.8" height="3" rx="1.5" fill="rgba(255,255,255,.32)"/><rect x="20" y="424" width="66.8" height="3" rx="1.5" fill="rgba(255,255,255,.92)"/><rect x="90.8" y="424" width="66.8" height="3" rx="1.5" fill="rgba(255,255,255,.32)"/><rect x="90.8" y="424" width="36.74" height="3" rx="1.5" fill="rgba(255,255,255,.92)"/><rect x="161.6" y="424" width="66.8" height="3" rx="1.5" fill="rgba(255,255,255,.32)"/><rect x="232.4" y="424" width="66.8" height="3" rx="1.5" fill="rgba(255,255,255,.32)"/><rect x="303.2" y="424" width="66.8" height="3" rx="1.5" fill="rgba(255,255,255,.32)"/></g><g><rect x="20" y="454" width="82.65" height="24" rx="12.0" fill="rgba(37,26,46,.82)"/><g transform="translate(27 459.5) scale(0.5417)" fill="none" stroke="#DDBEF0" stroke-width="3.231" stroke-linecap="round" stroke-linejoin="round" data-icon="personalization"><path d="M11 3.5c.6 4.3 2.2 5.9 6.5 6.5-4.3.6-5.9 2.2-6.5 6.5-.6-4.3-2.2-5.9-6.5-6.5 4.3-.6 5.9-2.2 6.5-6.5z"/><path d="M18.5 15.5c.2 1.3.7 1.8 2 2-1.3.2-1.8.7-2 2-.2-1.3-.7-1.8-2-2 1.3-.2 1.8-.7 2-2z"/></g><text x="43" y="469.8" class="sans" font-size="10.5" font-weight="600" letter-spacing="0.84" fill="#DDBEF0">FOR YOU</text></g><text x="20" y="504" class="sans" font-size="11" font-weight="600" letter-spacing="0.88" fill="rgba(255,255,255,.8)">TRAVEL · FOR YOU</text><text x="20" y="540" class="sans" font-size="28" font-weight="700" letter-spacing="-0.56" fill="#FFFFFF">Monsoon's over. Six</text><text x="20" y="572" class="sans" font-size="28" font-weight="700" letter-spacing="-0.56" fill="#FFFFFF">beaches worth a long</text><text x="20" y="604" class="sans" font-size="28" font-weight="700" letter-spacing="-0.56" fill="#FFFFFF">weekend</text><text x="20" y="630" class="sans tnum" font-size="12" font-weight="500" letter-spacing="0.12" fill="rgba(255,255,255,.72)">Wake Travel · 4 min</text><g><rect x="20" y="648" width="118.08" height="44" rx="22.0" fill="rgba(255,255,255,.16)"/><text x="40" y="675.4" class="sans" font-size="15" font-weight="600" letter-spacing="-0.07" fill="#FFFFFF">Explore</text><g transform="translate(100.08 661) scale(0.75)" fill="none" stroke="#FFFFFF" stroke-width="2.333" stroke-linecap="round" stroke-linejoin="round" data-icon="arrow"><path d="M7 17 17 7"/><path d="M8.5 7H17v8.5"/></g></g><g><circle cx="348" cy="670" r="22" fill="rgba(22,22,27,.56)"/><g transform="translate(338 660) scale(0.8333)" fill="none" stroke="#FFFFFF" stroke-width="2.1" stroke-linecap="round" stroke-linejoin="round" data-icon="share"><path d="M12 15V3.8"/><path d="M7.5 8.3 12 3.8l4.5 4.5"/><path d="M5 12.5V19a1.5 1.5 0 0 0 1.5 1.5h11A1.5 1.5 0 0 0 19 19v-6.5"/></g></g><g><circle cx="296" cy="670" r="22" fill="rgba(22,22,27,.56)"/><g transform="translate(286 660) scale(0.8333)" fill="none" stroke="#FFFFFF" stroke-width="2.1" stroke-linecap="round" stroke-linejoin="round" data-icon="like"><path d="M12 20.2s-7.8-4.7-7.8-10.3A4.4 4.4 0 0 1 12 7.2a4.4 4.4 0 0 1 7.8 2.7c0 5.6-7.8 10.3-7.8 10.3z"/></g></g><g><circle cx="52" cy="790" r="22" fill="rgba(22,22,27,.56)"/><g transform="translate(42 780) scale(0.8333)" fill="none" stroke="#FFFFFF" stroke-width="2.1" stroke-linecap="round" stroke-linejoin="round" data-icon="live"><circle cx="12" cy="12" r="2.2" fill="#FFFFFF"/><path d="M8 8a5.7 5.7 0 0 0 0 8"/><path d="M16 8a5.7 5.7 0 0 1 0 8"/><path d="M5.2 5.2a9.6 9.6 0 0 0 0 13.6"/><path d="M18.8 5.2a9.6 9.6 0 0 1 0 13.6"/></g></g><g><circle cx="338" cy="790" r="22" fill="rgba(22,22,27,.56)"/><g transform="translate(328 780) scale(0.8333)" fill="none" stroke="#FFFFFF" stroke-width="2.1" stroke-linecap="round" stroke-linejoin="round" data-icon="camera"><path d="M4.5 7.5h3l1.5-2h6l1.5 2h3a1 1 0 0 1 1 1v10a1 1 0 0 1-1 1h-15a1 1 0 0 1-1-1v-10a1 1 0 0 1 1-1z"/><path d="M15.5 13a3.5 3.5 0 1 1-7 0 3.5 3.5 0 0 1 7 0z"/></g></g><text x="195" y="796" class="sans" font-size="12" font-weight="500" text-anchor="middle" fill="rgba(255,255,255,.64)">Swipe for next story</text><rect x="128" y="831" width="134" height="5" rx="3" fill="#FFFFFF"/></g><rect x="133" y="11" width="124" height="36" rx="18" fill="#000000"/></g></g>
<g transform="translate(1480 230) scale(0.82)"><g><rect x="-10" y="-10" width="410" height="864" rx="64" fill="#1B1B20" stroke="#2E2E36" stroke-width="1"/><g clip-path="url(#c7)"><rect x="0" y="0" width="390" height="844" fill="#000000"/><rect x="0" y="0" width="390" height="844" fill="#0C0C10"/><text x="28" y="30" class="sans tnum" font-size="15" font-weight="600" letter-spacing="-0.07" fill="#FFFFFF">9:41</text><rect x="335" y="20" width="25" height="12" rx="3.5" fill="none" stroke="#FFFFFF" stroke-width="1" opacity="0.9"/><rect x="337" y="22" width="18" height="8" rx="2" fill="#FFFFFF"/><rect x="361.5" y="24" width="1.5" height="4" rx="1" fill="#FFFFFF" opacity="0.6"/><rect x="302" y="27.5" width="3" height="2.5" rx="1" fill="#FFFFFF"/><rect x="307" y="25" width="3" height="5" rx="1" fill="#FFFFFF"/><rect x="312" y="22.5" width="3" height="7.5" rx="1" fill="#FFFFFF"/><rect x="317" y="20" width="3" height="10" rx="1" fill="#FFFFFF"/><path d="M320 25 a8 8 0 0 1 11 0 M322.5 28 a4 4 0 0 1 6 0" fill="none" stroke="#FFFFFF" stroke-width="1.6" stroke-linecap="round" stroke-linejoin="round"/><g id="top-bar"><g id="wordmark"><text x="16" y="80" class="disp" font-size="24" font-weight="400" letter-spacing="-0.24" font-style="italic" fill="#FFFFFF">wake</text><circle cx="65.47" cy="74.72" r="2.88" fill="#FF0049"/></g><g><circle cx="358" cy="76" r="16" fill="#B98BDB"/><text x="358" y="81.44" class="sans" font-size="14.4" font-weight="700" letter-spacing="-0.14" text-anchor="middle" fill="#251A2E">A</text></g><g><g transform="translate(306 66) scale(0.8333)" fill="none" stroke="#FFFFFF" stroke-width="2.1" stroke-linecap="round" stroke-linejoin="round" data-icon="notification"><path d="M6 16.5V11a6 6 0 0 1 12 0v5.5l1.5 2h-15z"/><path d="M10 20.5a2.2 2.2 0 0 0 4 0"/></g><circle cx="328" cy="64" r="8" fill="#FF0049"/><text x="328" y="67.5" class="sans" font-size="9" font-weight="600" text-anchor="middle" fill="#FFFFFF">3</text></g></g><text x="16" y="150" class="sans" font-size="28" font-weight="700" letter-spacing="-0.56" fill="#FFFFFF">Good morning, Aria</text><text x="16" y="174" class="sans tnum" font-size="12" font-weight="500" letter-spacing="0.12" fill="#85838F">Wed 30 Sep · 31° Delhi · 3 new for you</text><g id="category-tabs"><text x="16" y="216" class="sans" font-size="15" font-weight="700" letter-spacing="-0.07" fill="#FFFFFF">For you</text><rect x="35.04" y="225" width="16" height="3" rx="1.5" fill="#FF0049"/><text x="92.08" y="216" class="sans" font-size="15" font-weight="500" letter-spacing="-0.07" fill="#85838F">Travel</text><text x="157.6" y="216" class="sans" font-size="15" font-weight="500" letter-spacing="-0.07" fill="#85838F">Style</text><text x="215.69" y="216" class="sans" font-size="15" font-weight="500" letter-spacing="-0.07" fill="#85838F">News</text><text x="277.88" y="216" class="sans" font-size="15" font-weight="500" letter-spacing="-0.07" fill="#85838F">Cricket</text><text x="350.76" y="216" class="sans" font-size="15" font-weight="500" letter-spacing="-0.07" fill="#85838F">Food</text></g><g id="card-hero"><g clip-path="url(#c9)" data-media="lagoon"><rect x="16" y="244" width="358" height="420" fill="url(#g10)"/><circle cx="302.4" cy="319.6" r="25.06" fill="#FFF6DA" opacity="0.9"/><path d="M16 571.6 Q195.0 546.4 374 580.0 V664 H16Z" fill="#EBD2A6"/><path d="M94.76 580.0 Q105.5 475.0 123.4 403.6" fill="none" stroke="#1B2B24" stroke-width="4.296" stroke-linecap="round" stroke-linejoin="round"/><path d="M123.4 403.6 Q135.03500000000003 382.6 146.67000000000002 390.1761598246321" fill="none" stroke="#1B2B24" stroke-width="3.58" stroke-linecap="round" stroke-linejoin="round"/><path d="M123.4 403.6 Q145.2666472856881 382.6 167.13329457137618 403.38109238819317" fill="none" stroke="#1B2B24" stroke-width="3.58" stroke-linecap="round" stroke-linejoin="round"/><path d="M123.4 403.6 Q145.2666472856881 382.6 167.13329457137618 420.61890761180683" fill="none" stroke="#1B2B24" stroke-width="3.58" stroke-linecap="round" stroke-linejoin="round"/><path d="M123.4 403.6 Q135.03500000000003 382.6 146.67000000000002 433.8238401753679" fill="none" stroke="#1B2B24" stroke-width="3.58" stroke-linecap="round" stroke-linejoin="round"/><path d="M123.4 403.6 Q115.44119126481169 382.6 107.48238252962338 435.6802540438049" fill="none" stroke="#1B2B24" stroke-width="3.58" stroke-linecap="round" stroke-linejoin="round"/><path d="M123.4 403.6 Q101.53335271431192 382.6 79.66670542862383 420.61890761180683" fill="none" stroke="#1B2B24" stroke-width="3.58" stroke-linecap="round" stroke-linejoin="round"/><line x1="141.3" y1="487.6" x2="212.9" y2="487.6" stroke="#FFFFFF" stroke-width="1.2" stroke-linecap="round" opacity="0.35"/><line x1="159.2" y1="506.5" x2="234.38" y2="506.5" stroke="#FFFFFF" stroke-width="1.2" stroke-linecap="round" opacity="0.35"/><line x1="177.1" y1="525.4" x2="255.86" y2="525.4" stroke="#FFFFFF" stroke-width="1.2" stroke-linecap="round" opacity="0.35"/><line x1="195" y1="544.3" x2="277.34" y2="544.3" stroke="#FFFFFF" stroke-width="1.2" stroke-linecap="round" opacity="0.35"/></g><rect x="16" y="244" width="358" height="420" rx="24" fill="url(#g11)"/><rect x="16" y="244" width="358" height="420" rx="24" fill="none" stroke="rgba(255,255,255,.08)" stroke-width="1"/><g><rect x="32" y="260" width="82.65" height="24" rx="12.0" fill="rgba(37,26,46,.82)"/><g transform="translate(39 265.5) scale(0.5417)" fill="none" stroke="#DDBEF0" stroke-width="3.231" stroke-linecap="round" stroke-linejoin="round" data-icon="personalization"><path d="M11 3.5c.6 4.3 2.2 5.9 6.5 6.5-4.3.6-5.9 2.2-6.5 6.5-.6-4.3-2.2-5.9-6.5-6.5 4.3-.6 5.9-2.2 6.5-6.5z"/><path d="M18.5 15.5c.2 1.3.7 1.8 2 2-1.3.2-1.8.7-2 2-.2-1.3-.7-1.8-2-2 1.3-.2 1.8-.7 2-2z"/></g><text x="55" y="275.8" class="sans" font-size="10.5" font-weight="600" letter-spacing="0.84" fill="#DDBEF0">FOR YOU</text></g><g><circle cx="338" cy="276" r="20" fill="rgba(22,22,27,.56)"/><g transform="translate(328 266) scale(0.8333)" fill="none" stroke="#FFFFFF" stroke-width="2.1" stroke-linecap="round" stroke-linejoin="round" data-icon="bookmark"><path d="M7 3.5h10a1.5 1.5 0 0 1 1.5 1.5v15.5L12 16l-6.5 4.5V5A1.5 1.5 0 0 1 7 3.5z"/></g></g><g><rect x="36" y="600" width="135.45" height="44" rx="22.0" fill="#E6003F"/><text x="56" y="627.4" class="sans" font-size="15" font-weight="600" letter-spacing="-0.07" fill="#FFFFFF">Plan a trip</text><g transform="translate(133.45 613) scale(0.75)" fill="none" stroke="#FFFFFF" stroke-width="2.333" stroke-linecap="round" stroke-linejoin="round" data-icon="arrow"><path d="M7 17 17 7"/><path d="M8.5 7H17v8.5"/></g></g><g><circle cx="332" cy="622" r="22" fill="rgba(22,22,27,.56)"/><g transform="translate(322 612) scale(0.8333)" fill="none" stroke="#FFFFFF" stroke-width="2.1" stroke-linecap="round" stroke-linejoin="round" data-icon="share"><path d="M12 15V3.8"/><path d="M7.5 8.3 12 3.8l4.5 4.5"/><path d="M5 12.5V19a1.5 1.5 0 0 0 1.5 1.5h11A1.5 1.5 0 0 0 19 19v-6.5"/></g></g><text x="36" y="582" class="sans tnum" font-size="12" font-weight="500" letter-spacing="0.12" fill="rgba(255,255,255,.72)">Wake Travel · 4 min</text><text x="36" y="526.1" class="sans" font-size="26" font-weight="700" letter-spacing="-0.52" fill="#FFFFFF">Monsoon's over. Six</text><text x="36" y="556" class="sans" font-size="26" font-weight="700" letter-spacing="-0.52" fill="#FFFFFF">beaches worth the flight</text><text x="36" y="496.1" class="sans" font-size="11" font-weight="600" letter-spacing="0.88" fill="rgba(255,255,255,.8)">TRAVEL · FOR YOU</text></g><g><g transform="translate(16 687) scale(0.75)" fill="none" stroke="#DDBEF0" stroke-width="2.333" stroke-linecap="round" stroke-linejoin="round" data-icon="personalization"><path d="M11 3.5c.6 4.3 2.2 5.9 6.5 6.5-4.3.6-5.9 2.2-6.5 6.5-.6-4.3-2.2-5.9-6.5-6.5 4.3-.6 5.9-2.2 6.5-6.5z"/><path d="M18.5 15.5c.2 1.3.7 1.8 2 2-1.3.2-1.8.7-2 2-.2-1.3-.7-1.8-2-2 1.3-.2 1.8-.7 2-2z"/></g><text x="40" y="704" class="sans" font-size="20" font-weight="700" letter-spacing="-0.3" fill="#FFFFFF">Because you saved Goa</text><text x="374" y="704" class="sans" font-size="14" font-weight="500" letter-spacing="-0.07" text-anchor="end" fill="#B8B8C2">See all</text><text x="16" y="724" class="sans" font-size="13" font-weight="400" fill="#DDBEF0">Tuned to beaches · monsoon · under ₹8k</text></g><g id="card-recommendation"><g clip-path="url(#c12)" data-media="beach-city"><rect x="16" y="740" width="240" height="300" fill="url(#g13)"/><rect x="16" y="918.21" width="18.65" height="121.79" fill="#3A1838"/><rect x="20" y="937.21" width="3" height="5" fill="#FFD27A" opacity="0.58"/><rect x="20" y="1003.21" width="3" height="5" fill="#FFD27A" opacity="0.95"/><rect x="36.65" y="954.12" width="29.72" height="85.88" fill="#3A1838"/><rect x="40.65" y="973.12" width="3" height="5" fill="#FFD27A" opacity="0.75"/><rect x="48.65" y="984.12" width="3" height="5" fill="#FFD27A" opacity="0.77"/><rect x="40.65" y="995.12" width="3" height="5" fill="#FFD27A" opacity="0.68"/><rect x="40.65" y="1017.12" width="3" height="5" fill="#FFD27A" opacity="0.74"/><rect x="68.37" y="907.63" width="16.08" height="132.37" fill="#3A1838"/><rect x="72.37" y="915.63" width="3" height="5" fill="#FFD27A" opacity="0.83"/><rect x="72.37" y="948.63" width="3" height="5" fill="#FFD27A" opacity="0.64"/><rect x="72.37" y="959.63" width="3" height="5" fill="#FFD27A" opacity="0.71"/><rect x="72.37" y="970.63" width="3" height="5" fill="#FFD27A" opacity="0.5"/><rect x="86.46" y="861.43" width="19.95" height="178.57" fill="#3A1838"/><rect x="90.46" y="880.43" width="3" height="5" fill="#FFD27A" opacity="0.86"/><rect x="90.46" y="891.43" width="3" height="5" fill="#FFD27A" opacity="0.94"/><rect x="90.46" y="913.43" width="3" height="5" fill="#FFD27A" opacity="0.55"/><rect x="90.46" y="924.43" width="3" height="5" fill="#FFD27A" opacity="0.78"/><rect x="108.4" y="927.55" width="25.35" height="112.45" fill="#3A1838"/><rect x="120.4" y="946.55" width="3" height="5" fill="#FFD27A" opacity="0.85"/><rect x="112.4" y="957.55" width="3" height="5" fill="#FFD27A" opacity="0.72"/><rect x="120.4" y="968.55" width="3" height="5" fill="#FFD27A" opacity="0.56"/><rect x="112.4" y="1001.55" width="3" height="5" fill="#FFD27A" opacity="0.55"/><rect x="120.4" y="1012.55" width="3" height="5" fill="#FFD27A" opacity="0.58"/><rect x="120.4" y="1023.55" width="3" height="5" fill="#FFD27A" opacity="0.63"/><rect x="135.75" y="902.76" width="29.91" height="137.24" fill="#3A1838"/><rect x="147.75" y="910.76" width="3" height="5" fill="#FFD27A" opacity="0.95"/><rect x="139.75" y="921.76" width="3" height="5" fill="#FFD27A" opacity="0.45"/><rect x="147.75" y="932.76" width="3" height="5" fill="#FFD27A" opacity="0.47"/><rect x="147.75" y="976.76" width="3" height="5" fill="#FFD27A" opacity="0.9"/><rect x="139.75" y="987.76" width="3" height="5" fill="#FFD27A" opacity="0.49"/><rect x="147.75" y="998.76" width="3" height="5" fill="#FFD27A" opacity="0.84"/><rect x="147.75" y="1020.76" width="3" height="5" fill="#FFD27A" opacity="0.43"/><rect x="167.67" y="873.5" width="19.46" height="166.5" fill="#3A1838"/><rect x="171.67" y="881.5" width="3" height="5" fill="#FFD27A" opacity="0.74"/><rect x="171.67" y="892.5" width="3" height="5" fill="#FFD27A" opacity="0.45"/><rect x="171.67" y="947.5" width="3" height="5" fill="#FFD27A" opacity="0.67"/><rect x="171.67" y="980.5" width="3" height="5" fill="#FFD27A" opacity="0.51"/><rect x="171.67" y="1024.5" width="3" height="5" fill="#FFD27A" opacity="0.89"/><rect x="189.13" y="894.99" width="21.29" height="145.01" fill="#3A1838"/><rect x="193.13" y="902.99" width="3" height="5" fill="#FFD27A" opacity="0.88"/><rect x="193.13" y="946.99" width="3" height="5" fill="#FFD27A" opacity="0.52"/><rect x="193.13" y="957.99" width="3" height="5" fill="#FFD27A" opacity="0.53"/><rect x="193.13" y="979.99" width="3" height="5" fill="#FFD27A" opacity="0.62"/><rect x="212.42" y="921.67" width="18.17" height="118.33" fill="#3A1838"/><rect x="216.42" y="973.67" width="3" height="5" fill="#FFD27A" opacity="0.74"/><rect x="216.42" y="995.67" width="3" height="5" fill="#FFD27A" opacity="0.81"/><rect x="232.59" y="930.64" width="27.86" height="109.36" fill="#3A1838"/><rect x="236.59" y="938.64" width="3" height="5" fill="#FFD27A" opacity="0.44"/><rect x="244.59" y="938.64" width="3" height="5" fill="#FFD27A" opacity="0.86"/><rect x="244.59" y="949.64" width="3" height="5" fill="#FFD27A" opacity="0.65"/><rect x="236.59" y="982.64" width="3" height="5" fill="#FFD27A" opacity="0.84"/><rect x="236.59" y="993.64" width="3" height="5" fill="#FFD27A" opacity="0.89"/><rect x="236.59" y="1004.64" width="3" height="5" fill="#FFD27A" opacity="0.79"/><rect x="244.59" y="1026.64" width="3" height="5" fill="#FFD27A" opacity="0.91"/></g><rect x="16" y="740" width="240" height="300" rx="16" fill="url(#g14)"/><rect x="16" y="740" width="240" height="300" rx="16" fill="none" stroke="rgba(255,255,255,.08)" stroke-width="1"/><rect x="28" y="752" width="176.61" height="28" rx="14" fill="rgba(37,26,46,.86)"/><g transform="translate(36 758) scale(0.6667)" fill="none" stroke="#DDBEF0" stroke-width="2.625" stroke-linecap="round" stroke-linejoin="round" data-icon="personalization"><path d="M11 3.5c.6 4.3 2.2 5.9 6.5 6.5-4.3.6-5.9 2.2-6.5 6.5-.6-4.3-2.2-5.9-6.5-6.5 4.3-.6 5.9-2.2 6.5-6.5z"/><path d="M18.5 15.5c.2 1.3.7 1.8 2 2-1.3.2-1.8.7-2 2-.2-1.3-.7-1.8-2-2 1.3-.2 1.8-.7 2-2z"/></g><text x="58" y="770.5" class="sans" font-size="12" font-weight="600" fill="#DDBEF0">Because you saved Goa</text><text x="32" y="973" class="sans" font-size="19" font-weight="700" letter-spacing="-0.19" fill="#FFFFFF">Sunset rooftops of</text><text x="32" y="996" class="sans" font-size="19" font-weight="700" letter-spacing="-0.19" fill="#FFFFFF">Panjim</text><text x="32" y="1022" class="sans tnum" font-size="12" font-weight="500" letter-spacing="0.12" fill="rgba(255,255,255,.72)">8 stays · from ₹3,200</text><g transform="translate(222 1008) scale(0.8333)" fill="none" stroke="rgba(255,255,255,.8)" stroke-width="2.1" stroke-linecap="round" stroke-linejoin="round" data-icon="more"><circle cx="6" cy="12" r="1.6" fill="rgba(255,255,255,.8)"/><circle cx="12" cy="12" r="1.6" fill="rgba(255,255,255,.8)"/><circle cx="18" cy="12" r="1.6" fill="rgba(255,255,255,.8)"/></g></g><g id="card-recommendation"><g clip-path="url(#c15)" data-media="desert"><rect x="268" y="740" width="240" height="300" fill="url(#g16)"/><circle cx="340" cy="845" r="28.8" fill="#FFF1D0" opacity="0.9"/><path d="M268 950.0 Q352.0 896.0 436.0 956.0 T508 935.0 V1040 H268Z" fill="#B5532F"/><path d="M268 995.0 Q388.0 956.0 508 1004.0 V1040 H268Z" fill="#8A3A22"/></g><rect x="268" y="740" width="240" height="300" rx="16" fill="url(#g17)"/><rect x="268" y="740" width="240" height="300" rx="16" fill="none" stroke="rgba(255,255,255,.08)" stroke-width="1"/><rect x="280" y="752" width="176.61" height="28" rx="14" fill="rgba(37,26,46,.86)"/><g transform="translate(288 758) scale(0.6667)" fill="none" stroke="#DDBEF0" stroke-width="2.625" stroke-linecap="round" stroke-linejoin="round" data-icon="personalization"><path d="M11 3.5c.6 4.3 2.2 5.9 6.5 6.5-4.3.6-5.9 2.2-6.5 6.5-.6-4.3-2.2-5.9-6.5-6.5 4.3-.6 5.9-2.2 6.5-6.5z"/><path d="M18.5 15.5c.2 1.3.7 1.8 2 2-1.3.2-1.8.7-2 2-.2-1.3-.7-1.8-2-2 1.3-.2 1.8-.7 2-2z"/></g><text x="310" y="770.5" class="sans" font-size="12" font-weight="600" fill="#DDBEF0">Because you saved Goa</text><text x="284" y="996" class="sans" font-size="19" font-weight="700" letter-spacing="-0.19" fill="#FFFFFF">Desert camps reopen</text><text x="284" y="1022" class="sans tnum" font-size="12" font-weight="500" letter-spacing="0.12" fill="rgba(255,255,255,.72)">8 stays · from ₹3,200</text><g transform="translate(474 1008) scale(0.8333)" fill="none" stroke="rgba(255,255,255,.8)" stroke-width="2.1" stroke-linecap="round" stroke-linejoin="round" data-icon="more"><circle cx="6" cy="12" r="1.6" fill="rgba(255,255,255,.8)"/><circle cx="12" cy="12" r="1.6" fill="rgba(255,255,255,.8)"/><circle cx="18" cy="12" r="1.6" fill="rgba(255,255,255,.8)"/></g></g><g id="bottom-nav"><rect x="0" y="760" width="390" height="84" fill="rgba(12,12,16,.92)"/><line x1="0" y1="760" x2="390" y2="760" stroke="rgba(255, 255, 255, 0.08)" stroke-width="1" stroke-linecap="butt"/><g transform="translate(27 770) scale(1.0)" fill="none" stroke="#FFFFFF" stroke-width="1.75" stroke-linecap="round" stroke-linejoin="round" data-icon="home"><path d="M3.5 10.5 12 3.8l8.5 6.7V19a1.5 1.5 0 0 1-1.5 1.5h-4.5v-6h-5v6H5A1.5 1.5 0 0 1 3.5 19z"/></g><text x="39" y="810" class="sans" font-size="11" font-weight="600" text-anchor="middle" fill="#FFFFFF">For you</text><circle cx="39" cy="764" r="2" fill="#FF0049"/><g transform="translate(105 770) scale(1.0)" fill="none" stroke="#85838F" stroke-width="1.75" stroke-linecap="round" stroke-linejoin="round" data-icon="grid"><path d="M4.5 4.5h6v6h-6z"/><path d="M13.5 4.5h6v6h-6z"/><path d="M4.5 13.5h6v6h-6z"/><path d="M13.5 13.5h6v6h-6z"/></g><text x="117" y="810" class="sans" font-size="11" font-weight="500" text-anchor="middle" fill="#85838F">Discover</text><circle cx="195" cy="782" r="18" fill="#251A2E"/><g transform="translate(184 771) scale(0.9167)" fill="none" stroke="#DDBEF0" stroke-width="1.909" stroke-linecap="round" stroke-linejoin="round" data-icon="personalization"><path d="M11 3.5c.6 4.3 2.2 5.9 6.5 6.5-4.3.6-5.9 2.2-6.5 6.5-.6-4.3-2.2-5.9-6.5-6.5 4.3-.6 5.9-2.2 6.5-6.5z"/><path d="M18.5 15.5c.2 1.3.7 1.8 2 2-1.3.2-1.8.7-2 2-.2-1.3-.7-1.8-2-2 1.3-.2 1.8-.7 2-2z"/></g><text x="195" y="814" class="sans" font-size="11" font-weight="600" text-anchor="middle" fill="#DDBEF0">Ask</text><g transform="translate(261 770) scale(1.0)" fill="none" stroke="#85838F" stroke-width="1.75" stroke-linecap="round" stroke-linejoin="round" data-icon="bookmark"><path d="M7 3.5h10a1.5 1.5 0 0 1 1.5 1.5v15.5L12 16l-6.5 4.5V5A1.5 1.5 0 0 1 7 3.5z"/></g><text x="273" y="810" class="sans" font-size="11" font-weight="500" text-anchor="middle" fill="#85838F">Saved</text><g transform="translate(339 770) scale(1.0)" fill="none" stroke="#85838F" stroke-width="1.75" stroke-linecap="round" stroke-linejoin="round" data-icon="profile"><path d="M16 8a4 4 0 1 1-8 0 4 4 0 0 1 8 0z"/><path d="M4.5 20.5c.8-3.9 3.9-6 7.5-6s6.7 2.1 7.5 6"/></g><text x="351" y="810" class="sans" font-size="11" font-weight="500" text-anchor="middle" fill="#85838F">You</text><rect x="128" y="831" width="134" height="5" rx="3" fill="#FFFFFF"/></g></g><rect x="133" y="11" width="124" height="36" rx="18" fill="#000000"/></g></g>
</svg>