<svg xmlns="http://www.w3.org/2000/svg" width="1920" height="1080" viewBox="0 0 1920 1080" role="img" aria-labelledby="t d">
<title id="t">Visual language</title>
<desc id="d">Imagery-first cards, one red, one lavender, two families · Wake, A Glance-inspired design system. Original vector artwork; not a Glance asset.</desc>
<defs><style>.sans{font-family:Inter, 'Helvetica Neue', Arial, sans-serif;}.disp{font-family:'Instrument Serif', 'Times New Roman', Georgia, serif;}.tnum{font-variant-numeric:tabular-nums;}</style><clipPath id="c18"><rect x="1010" y="150" width="380" height="475" rx="24"/></clipPath><linearGradient id="g19" x1="0" y1="0" x2="0" y2="1"><stop offset="0" stop-color="#9FD8F0"/><stop offset="0.5" stop-color="#57B8D6"/><stop offset="0.52" stop-color="#1E8FA8"/><stop offset="1" stop-color="#0B4F66"/></linearGradient><linearGradient id="g20" x1="0" y1="0" x2="0" y2="1"><stop offset="0" stop-color="#000" stop-opacity="0"/><stop offset="0.35" stop-color="#000" stop-opacity="0.0"/><stop offset="0.6" stop-color="#000" stop-opacity="0.35"/><stop offset="1" stop-color="#000" stop-opacity="0.85"/></linearGradient><clipPath id="c21"><rect x="1420" y="150" width="380" height="475" rx="16"/></clipPath><linearGradient id="g22" x1="0" y1="0" x2="0" y2="1"><stop offset="0" stop-color="#EAD9CC"/><stop offset="1" stop-color="#C49E8C"/></linearGradient><linearGradient id="g23" x1="0" y1="0" x2="0" y2="1"><stop offset="0" stop-color="#000" stop-opacity="0"/><stop offset="0.3" stop-color="#000" stop-opacity="0.0"/><stop offset="0.55" stop-color="#000" stop-opacity="0.35"/><stop offset="1" stop-color="#000" stop-opacity="0.85"/></linearGradient><clipPath id="c24"><rect x="1010" y="690" width="72" height="72" rx="12"/></clipPath><linearGradient id="g25" x1="0" y1="0" x2="0" y2="1"><stop offset="0" stop-color="#0B1A2E"/><stop offset="0.45" stop-color="#12324A"/><stop offset="0.46" stop-color="#1F7A3F"/><stop offset="1" stop-color="#0F4F27"/></linearGradient><clipPath id="c26"><rect x="1010" y="790" width="72" height="72" rx="12"/></clipPath><radialGradient id="r27" cx="0.5" cy="0.5" r="0.8"><stop offset="0" stop-color="#3A2A20"/><stop offset="1" stop-color="#120C08"/></radialGradient></defs>
<rect id="background" width="1920" height="1080" fill="#0C0C10"/>
<text x="120" y="132" class="sans" font-size="16" font-weight="600" letter-spacing="1.28" fill="#FF0049">VISUAL LANGUAGE</text>
<text x="1800" y="1020" class="sans" font-size="16" font-weight="500" letter-spacing="0.16" text-anchor="end" fill="#85838F">03</text>
<text x="120" y="1020" class="sans" font-size="16" font-weight="500" letter-spacing="0.16" fill="#85838F">Wake · A Glance-inspired design system</text>
<text x="120" y="236" class="disp" font-size="88" font-weight="400" letter-spacing="-0.44" fill="#FFFFFF">A dark stage. Imagery</text><text x="120" y="324" class="disp" font-size="88" font-weight="400" letter-spacing="-0.44" fill="#FFFFFF">does the talking.</text>
<text x="120" y="422" class="sans" font-size="24" font-weight="400" fill="#B8B8C2">One red for action and live. Lavender for anything about you. Serif for</text><text x="120" y="455.6" class="sans" font-size="24" font-weight="400" fill="#B8B8C2">the editorial moment; Inter for everything you read fast.</text>
<g id="card-hero"><g clip-path="url(#c18)" data-media="lagoon"><rect x="1010" y="150" width="380" height="475" fill="url(#g19)"/><circle cx="1314" cy="235.5" r="26.6" fill="#FFF6DA" opacity="0.9"/><path d="M1010 520.5 Q1200.0 492.0 1390 530.0 V625 H1010Z" fill="#EBD2A6"/><path d="M1093.6 530.0 Q1105.0 411.25 1124.0 330.5" fill="none" stroke="#1B2B24" stroke-width="4.5600000000000005" stroke-linecap="round" stroke-linejoin="round"/><path d="M1124.0 330.5 Q1136.35 306.75 1148.7 315.3182759921435" fill="none" stroke="#1B2B24" stroke-width="3.8000000000000003" stroke-linecap="round" stroke-linejoin="round"/><path d="M1124.0 330.5 Q1147.210407733412 306.75 1170.4208154668238 330.25242591521845" fill="none" stroke="#1B2B24" stroke-width="3.8000000000000003" stroke-linecap="round" stroke-linejoin="round"/><path d="M1124.0 330.5 Q1147.210407733412 306.75 1170.4208154668238 349.74757408478155" fill="none" stroke="#1B2B24" stroke-width="3.8000000000000003" stroke-linecap="round" stroke-linejoin="round"/><path d="M1124.0 330.5 Q1136.35 306.75 1148.7 364.6817240078565" fill="none" stroke="#1B2B24" stroke-width="3.8000000000000003" stroke-linecap="round" stroke-linejoin="round"/><path d="M1124.0 330.5 Q1115.552102459856 306.75 1107.104204919712 366.7812396923984" fill="none" stroke="#1B2B24" stroke-width="3.8000000000000003" stroke-linecap="round" stroke-linejoin="round"/><path d="M1124.0 330.5 Q1100.789592266588 306.75 1077.5791845331762 349.74757408478155" fill="none" stroke="#1B2B24" stroke-width="3.8000000000000003" stroke-linecap="round" stroke-linejoin="round"/><line x1="1143" y1="425.5" x2="1219" y2="425.5" stroke="#FFFFFF" stroke-width="1.2" stroke-linecap="round" opacity="0.35"/><line x1="1162" y1="446.88" x2="1241.8" y2="446.88" stroke="#FFFFFF" stroke-width="1.2" stroke-linecap="round" opacity="0.35"/><line x1="1181" y1="468.25" x2="1264.6" y2="468.25" stroke="#FFFFFF" stroke-width="1.2" stroke-linecap="round" opacity="0.35"/><line x1="1200" y1="489.62" x2="1287.4" y2="489.62" stroke="#FFFFFF" stroke-width="1.2" stroke-linecap="round" opacity="0.35"/></g><rect x="1010" y="150" width="380" height="475" rx="24" fill="url(#g20)"/><rect x="1010" y="150" width="380" height="475" rx="24" fill="none" stroke="rgba(255,255,255,.08)" stroke-width="1"/><g><rect x="1026" y="166" width="82.65" height="24" rx="12.0" fill="rgba(37,26,46,.82)"/><g transform="translate(1033 171.5) scale(0.5417)" fill="none" stroke="#DDBEF0" stroke-width="3.231" stroke-linecap="round" stroke-linejoin="round" data-icon="personalization"><path d="M11 3.5c.6 4.3 2.2 5.9 6.5 6.5-4.3.6-5.9 2.2-6.5 6.5-.6-4.3-2.2-5.9-6.5-6.5 4.3-.6 5.9-2.2 6.5-6.5z"/><path d="M18.5 15.5c.2 1.3.7 1.8 2 2-1.3.2-1.8.7-2 2-.2-1.3-.7-1.8-2-2 1.3-.2 1.8-.7 2-2z"/></g><text x="1049" y="181.8" class="sans" font-size="10.5" font-weight="600" letter-spacing="0.84" fill="#DDBEF0">FOR YOU</text></g><g><circle cx="1354" cy="182" r="20" fill="rgba(22,22,27,.56)"/><g transform="translate(1344 172) scale(0.8333)" fill="none" stroke="#FFFFFF" stroke-width="2.1" stroke-linecap="round" stroke-linejoin="round" data-icon="bookmark"><path d="M7 3.5h10a1.5 1.5 0 0 1 1.5 1.5v15.5L12 16l-6.5 4.5V5A1.5 1.5 0 0 1 7 3.5z"/></g></g><g><rect x="1030" y="561" width="135.45" height="44" rx="22.0" fill="#E6003F"/><text x="1050" y="588.4" class="sans" font-size="15" font-weight="600" letter-spacing="-0.07" fill="#FFFFFF">Plan a trip</text><g transform="translate(1127.45 574) scale(0.75)" fill="none" stroke="#FFFFFF" stroke-width="2.333" stroke-linecap="round" stroke-linejoin="round" data-icon="arrow"><path d="M7 17 17 7"/><path d="M8.5 7H17v8.5"/></g></g><g><circle cx="1348" cy="583" r="22" fill="rgba(22,22,27,.56)"/><g transform="translate(1338 573) scale(0.8333)" fill="none" stroke="#FFFFFF" stroke-width="2.1" stroke-linecap="round" stroke-linejoin="round" data-icon="share"><path d="M12 15V3.8"/><path d="M7.5 8.3 12 3.8l4.5 4.5"/><path d="M5 12.5V19a1.5 1.5 0 0 0 1.5 1.5h11A1.5 1.5 0 0 0 19 19v-6.5"/></g></g><text x="1030" y="543" class="sans tnum" font-size="12" font-weight="500" letter-spacing="0.12" fill="rgba(255,255,255,.72)">Wake Travel · 4 min</text><text x="1030" y="487.1" class="sans" font-size="26" font-weight="700" letter-spacing="-0.52" fill="#FFFFFF">Monsoon's over. Six</text><text x="1030" y="517" class="sans" font-size="26" font-weight="700" letter-spacing="-0.52" fill="#FFFFFF">beaches worth the flight</text><text x="1030" y="457.1" class="sans" font-size="11" font-weight="600" letter-spacing="0.88" fill="rgba(255,255,255,.8)">TRAVEL · FOR YOU</text></g>
<g id="card-recommendation"><g clip-path="url(#c21)" data-media="studio"><rect x="1420" y="150" width="380" height="475" fill="url(#g22)"/><path d="M1420 530.0 H1800 V625 H1420Z" fill="#000000" opacity="0.08"/><circle cx="1610" cy="245" r="29.56" fill="#5B3A2E"/><rect x="1599.44" y="268.75" width="21.11" height="21.11" fill="#8A5A45"/><path d="M1542.4444444444443 306.75 Q1610.0 278.25 1677.5555555555557 306.75 L1694.4444444444443 492.0 L1525.5555555555557 492.0Z" fill="#FF0049"/><path d="M1610.0 292.5 L1588.888888888889 387.5 L1610.0 492.0" fill="none" stroke="#000000" stroke-width="1.2" stroke-linecap="round" stroke-linejoin="round" opacity="0.25"/><rect x="1567.78" y="492" width="29.56" height="109.25" fill="#2A2530"/><rect x="1622.67" y="492" width="29.56" height="109.25" fill="#2A2530"/><circle cx="1473.2" cy="216.5" r="76" fill="#FFFFFF" opacity="0.25"/></g><rect x="1420" y="150" width="380" height="475" rx="16" fill="url(#g23)"/><rect x="1420" y="150" width="380" height="475" rx="16" fill="none" stroke="rgba(255,255,255,.08)" stroke-width="1"/><rect x="1432" y="162" width="185.64" height="28" rx="14" fill="rgba(37,26,46,.86)"/><g transform="translate(1440 168) scale(0.6667)" fill="none" stroke="#DDBEF0" stroke-width="2.625" stroke-linecap="round" stroke-linejoin="round" data-icon="personalization"><path d="M11 3.5c.6 4.3 2.2 5.9 6.5 6.5-4.3.6-5.9 2.2-6.5 6.5-.6-4.3-2.2-5.9-6.5-6.5 4.3-.6 5.9-2.2 6.5-6.5z"/><path d="M18.5 15.5c.2 1.3.7 1.8 2 2-1.3.2-1.8.7-2 2-.2-1.3-.7-1.8-2-2 1.3-.2 1.8-.7 2-2z"/></g><text x="1462" y="180.5" class="sans" font-size="12" font-weight="600" fill="#DDBEF0">Matches your street style</text><text x="1436" y="581" class="sans" font-size="19" font-weight="700" letter-spacing="-0.19" fill="#FFFFFF">The red coat, three ways</text><text x="1436" y="607" class="sans tnum" font-size="12" font-weight="500" letter-spacing="0.12" fill="rgba(255,255,255,.72)">4 pieces · Starring you</text><g transform="translate(1766 593) scale(0.8333)" fill="none" stroke="rgba(255,255,255,.8)" stroke-width="2.1" stroke-linecap="round" stroke-linejoin="round" data-icon="more"><circle cx="6" cy="12" r="1.6" fill="rgba(255,255,255,.8)"/><circle cx="12" cy="12" r="1.6" fill="rgba(255,255,255,.8)"/><circle cx="18" cy="12" r="1.6" fill="rgba(255,255,255,.8)"/></g></g>
<g><rect x="120" y="660" width="77.6" height="34" rx="17.0" fill="#FFFFFF"/><text x="134" y="682" class="sans" font-size="14" font-weight="500" letter-spacing="-0.07" fill="#0C0C10">For you</text></g><g><rect x="205.6" y="660" width="125.59" height="34" rx="17.0" fill="#2A2A33"/><g transform="translate(219.6 669) scale(0.6667)" fill="none" stroke="#FFFFFF" stroke-width="2.625" stroke-linecap="round" stroke-linejoin="round" data-icon="personalization"><path d="M11 3.5c.6 4.3 2.2 5.9 6.5 6.5-4.3.6-5.9 2.2-6.5 6.5-.6-4.3-2.2-5.9-6.5-6.5 4.3-.6 5.9-2.2 6.5-6.5z"/><path d="M18.5 15.5c.2 1.3.7 1.8 2 2-1.3.2-1.8.7-2 2-.2-1.3-.7-1.8-2-2 1.3-.2 1.8-.7 2-2z"/></g><text x="241.6" y="682" class="sans" font-size="14" font-weight="500" letter-spacing="-0.07" fill="#FFFFFF">Street style</text></g><g><rect x="339.19" y="660" width="75.49" height="34" rx="17.0" fill="#2A2A33"/><text x="353.19" y="682" class="sans" font-size="14" font-weight="500" letter-spacing="-0.07" fill="#FFFFFF">Cricket</text></g><g><rect x="422.67" y="660" width="85.35" height="34" rx="17.0" fill="#2A2A33"/><text x="436.67" y="682" class="sans" font-size="14" font-weight="500" letter-spacing="-0.07" fill="#FFFFFF">Beaches</text></g>
<g><rect x="120" y="730" width="52.36" height="22" rx="11.0" fill="#FF0049"/><circle cx="131" cy="741" r="3" fill="#FFFFFF"/><text x="139" y="744.8" class="sans" font-size="10.5" font-weight="600" letter-spacing="0.84" fill="#FFFFFF">LIVE</text></g>
<g><rect x="184.36" y="730" width="82.65" height="22" rx="11.0" fill="#251A2E"/><g transform="translate(191.36 734.5) scale(0.5417)" fill="none" stroke="#DDBEF0" stroke-width="3.231" stroke-linecap="round" stroke-linejoin="round" data-icon="personalization"><path d="M11 3.5c.6 4.3 2.2 5.9 6.5 6.5-4.3.6-5.9 2.2-6.5 6.5-.6-4.3-2.2-5.9-6.5-6.5 4.3-.6 5.9-2.2 6.5-6.5z"/><path d="M18.5 15.5c.2 1.3.7 1.8 2 2-1.3.2-1.8.7-2 2-.2-1.3-.7-1.8-2-2 1.3-.2 1.8-.7 2-2z"/></g><text x="207.36" y="744.8" class="sans" font-size="10.5" font-weight="600" letter-spacing="0.84" fill="#DDBEF0">FOR YOU</text></g>
<g><rect x="279.01" y="730" width="85.28" height="22" rx="11.0" fill="#0F2E22"/><circle cx="290.01" cy="741" r="3" fill="#2FD08A"/><text x="298.01" y="744.8" class="sans" font-size="10.5" font-weight="600" letter-spacing="0.84" fill="#2FD08A">LIVE FARE</text></g>
<g><rect x="376.29" y="730" width="65.88" height="22" rx="11.0" fill="#0F2E22"/><g transform="translate(383.29 734.5) scale(0.5417)" fill="none" stroke="#2FD08A" stroke-width="3.231" stroke-linecap="round" stroke-linejoin="round" data-icon="shield-check"><path d="M12 3 19.5 6v5.5c0 4.6-3.2 8.2-7.5 9.5-4.3-1.3-7.5-4.9-7.5-9.5V6z"/><path d="M8.8 12.2l2.3 2.3 4.3-4.6"/></g><text x="399.29" y="744.8" class="sans" font-size="10.5" font-weight="600" letter-spacing="0.84" fill="#2FD08A">CITED</text></g>
<g transform="translate(120 800) scale(1.3333)" fill="none" stroke="#FFFFFF" stroke-width="1.312" stroke-linecap="round" stroke-linejoin="round" data-icon="home"><path d="M3.5 10.5 12 3.8l8.5 6.7V19a1.5 1.5 0 0 1-1.5 1.5h-4.5v-6h-5v6H5A1.5 1.5 0 0 1 3.5 19z"/></g>
<g transform="translate(184 800) scale(1.3333)" fill="none" stroke="#FFFFFF" stroke-width="1.312" stroke-linecap="round" stroke-linejoin="round" data-icon="search"><path d="M17 10.5a6.5 6.5 0 1 1-13 0 6.5 6.5 0 0 1 13 0z"/><path d="M15.3 15.3 20.5 20.5"/></g>
<g transform="translate(248 800) scale(1.3333)" fill="none" stroke="#DDBEF0" stroke-width="1.312" stroke-linecap="round" stroke-linejoin="round" data-icon="personalization"><path d="M11 3.5c.6 4.3 2.2 5.9 6.5 6.5-4.3.6-5.9 2.2-6.5 6.5-.6-4.3-2.2-5.9-6.5-6.5 4.3-.6 5.9-2.2 6.5-6.5z"/><path d="M18.5 15.5c.2 1.3.7 1.8 2 2-1.3.2-1.8.7-2 2-.2-1.3-.7-1.8-2-2 1.3-.2 1.8-.7 2-2z"/></g>
<g transform="translate(312 800) scale(1.3333)" fill="none" stroke="#FFFFFF" stroke-width="1.312" stroke-linecap="round" stroke-linejoin="round" data-icon="like"><path d="M12 20.2s-7.8-4.7-7.8-10.3A4.4 4.4 0 0 1 12 7.2a4.4 4.4 0 0 1 7.8 2.7c0 5.6-7.8 10.3-7.8 10.3z"/></g>
<g transform="translate(376 800) scale(1.3333)" fill="none" stroke="#FFFFFF" stroke-width="1.312" stroke-linecap="round" stroke-linejoin="round" data-icon="bookmark"><path d="M7 3.5h10a1.5 1.5 0 0 1 1.5 1.5v15.5L12 16l-6.5 4.5V5A1.5 1.5 0 0 1 7 3.5z"/></g>
<g transform="translate(440 800) scale(1.3333)" fill="none" stroke="#FFFFFF" stroke-width="1.312" stroke-linecap="round" stroke-linejoin="round" data-icon="share"><path d="M12 15V3.8"/><path d="M7.5 8.3 12 3.8l4.5 4.5"/><path d="M5 12.5V19a1.5 1.5 0 0 0 1.5 1.5h11A1.5 1.5 0 0 0 19 19v-6.5"/></g>
<g transform="translate(504 800) scale(1.3333)" fill="none" stroke="#FFFFFF" stroke-width="1.312" stroke-linecap="round" stroke-linejoin="round" data-icon="plane"><path d="M12 2.8c.9 0 1.5.9 1.5 2v5.1l7 4.1v2l-7-2.1v4.1l2.2 1.6v1.6L12 20.3l-3.7.9v-1.6l2.2-1.6v-4.1l-7 2.1v-2l7-4.1V4.8c0-1.1.6-2 1.5-2z"/></g>
<g transform="translate(568 800) scale(1.3333)" fill="none" stroke="#FFFFFF" stroke-width="1.312" stroke-linecap="round" stroke-linejoin="round" data-icon="passport"><path d="M7 3h10a1.5 1.5 0 0 1 1.5 1.5v15A1.5 1.5 0 0 1 17 21H7a1.5 1.5 0 0 1-1.5-1.5v-15A1.5 1.5 0 0 1 7 3z"/><path d="M15 10.5a3 3 0 1 1-6 0 3 3 0 0 1 6 0z"/><path d="M9.5 16.5h5"/></g>
<g transform="translate(632 800) scale(1.3333)" fill="none" stroke="#FFFFFF" stroke-width="1.312" stroke-linecap="round" stroke-linejoin="round" data-icon="trending"><path d="M3.5 17 9.5 11l4 4 7-7.5"/><path d="M15 7.5h5.5V13"/></g>
<g transform="translate(696 800) scale(1.3333)" fill="none" stroke="#FFFFFF" stroke-width="1.312" stroke-linecap="round" stroke-linejoin="round" data-icon="live"><circle cx="12" cy="12" r="2.2" fill="#FFFFFF"/><path d="M8 8a5.7 5.7 0 0 0 0 8"/><path d="M16 8a5.7 5.7 0 0 1 0 8"/><path d="M5.2 5.2a9.6 9.6 0 0 0 0 13.6"/><path d="M18.8 5.2a9.6 9.6 0 0 1 0 13.6"/></g>
<text x="120" y="930" class="disp" font-size="96" font-weight="400" letter-spacing="-0.48" fill="#FFFFFF">Aa</text>
<text x="270" y="930" class="sans" font-size="96" font-weight="700" letter-spacing="-1.92" fill="#FFFFFF">Aa</text>
<g id="card-compact"><g clip-path="url(#c24)" data-media="stadium"><rect x="1010" y="690" width="72" height="72" fill="url(#g25)"/><path d="M1017.2 762 L1035.2 723.12 H1056.8 L1074.8 762" fill="none" stroke="#FFFFFF" stroke-width="1.5" stroke-linecap="round" stroke-linejoin="round" opacity="0.5"/><path d="M1024.4 744.0 Q1046.0 736.8 1067.6 744.0" fill="none" stroke="#FFFFFF" stroke-width="1.5" stroke-linecap="round" stroke-linejoin="round" opacity="0.5"/><circle cx="1017.2" cy="698.64" r="1.8" fill="#FFFFFF" opacity="0.9"/><path d="M1017.2 698.64 L1011.44 723.12 H1022.96Z" fill="#FFFFFF" opacity="0.06"/><circle cx="1031.6" cy="698.64" r="1.8" fill="#FFFFFF" opacity="0.9"/><path d="M1031.6 698.64 L1025.84 723.12 H1037.36Z" fill="#FFFFFF" opacity="0.06"/><circle cx="1046" cy="698.64" r="1.8" fill="#FFFFFF" opacity="0.9"/><path d="M1046.0 698.64 L1040.24 723.12 H1051.76Z" fill="#FFFFFF" opacity="0.06"/><circle cx="1060.4" cy="698.64" r="1.8" fill="#FFFFFF" opacity="0.9"/><path d="M1060.4 698.64 L1054.64 723.12 H1066.16Z" fill="#FFFFFF" opacity="0.06"/><circle cx="1074.8" cy="698.64" r="1.8" fill="#FFFFFF" opacity="0.9"/><path d="M1074.8 698.64 L1069.04 723.12 H1080.56Z" fill="#FFFFFF" opacity="0.06"/></g><text x="1096" y="708" class="sans" font-size="15" font-weight="600" fill="#FFFFFF">Final over: chase needs 12 off 6</text><text x="1096" y="730.25" class="sans tnum" font-size="12" font-weight="500" letter-spacing="0.12" fill="#85838F">Cricket · Live · 2.1M reading</text><g transform="translate(1778 715) scale(0.9167)" fill="none" stroke="#B8B8C2" stroke-width="1.909" stroke-linecap="round" stroke-linejoin="round" data-icon="bookmark"><path d="M7 3.5h10a1.5 1.5 0 0 1 1.5 1.5v15.5L12 16l-6.5 4.5V5A1.5 1.5 0 0 1 7 3.5z"/></g></g>
<g id="card-compact"><g clip-path="url(#c26)" data-media="food"><rect x="1010" y="790" width="72" height="72" fill="url(#r27)"/><circle cx="1046" cy="826" r="24.48" fill="#F3EDE4"/><circle cx="1046" cy="826" r="19.58" fill="#E0A33A"/><circle cx="1044.55" cy="813.78" r="2.03" fill="#C0392B" opacity="0.95"/><circle cx="1037.18" cy="824.8" r="3.59" fill="#FFFFFF" opacity="0.95"/><circle cx="1038.58" cy="826.07" r="3.41" fill="#7A3E1D" opacity="0.95"/><circle cx="1053.48" cy="836.32" r="3.36" fill="#7A3E1D" opacity="0.95"/><circle cx="1034.26" cy="828.46" r="3.38" fill="#7A3E1D" opacity="0.95"/><circle cx="1047.7" cy="834.72" r="2.89" fill="#7A3E1D" opacity="0.95"/><circle cx="1046.75" cy="824.13" r="2.94" fill="#F4D35E" opacity="0.95"/><circle cx="1045.85" cy="825.96" r="2.35" fill="#FFFFFF" opacity="0.95"/><circle cx="1052.24" cy="833.13" r="2.49" fill="#C0392B" opacity="0.95"/></g><text x="1096" y="808" class="sans" font-size="15" font-weight="600" fill="#FFFFFF">The ₹99 thali everyone is queueing for</text><text x="1096" y="830.25" class="sans tnum" font-size="12" font-weight="500" letter-spacing="0.12" fill="#85838F">Food · Pune</text><g transform="translate(1778 815) scale(0.9167)" fill="none" stroke="#B8B8C2" stroke-width="1.909" stroke-linecap="round" stroke-linejoin="round" data-icon="bookmark"><path d="M7 3.5h10a1.5 1.5 0 0 1 1.5 1.5v15.5L12 16l-6.5 4.5V5A1.5 1.5 0 0 1 7 3.5z"/></g></g>
</svg>