<svg xmlns="http://www.w3.org/2000/svg" width="400" height="500" viewBox="0 0 400 500" role="img" aria-labelledby="t d">
<title id="t">Placeholder image: sneaker</title>
<desc id="d">Original placeholder art (sneaker), 4:5. Replace with licensed photography in production. · Wake, A Glance-inspired design system. Original vector artwork; not a Glance asset.</desc>
<defs><style>.sans{font-family:Inter, 'Helvetica Neue', Arial, sans-serif;}.disp{font-family:'Instrument Serif', 'Times New Roman', Georgia, serif;}.tnum{font-variant-numeric:tabular-nums;}</style><clipPath id="c169"><rect x="0" y="0" width="400" height="500" rx="0"/></clipPath></defs>
<g clip-path="url(#c169)" data-media="sneaker"><rect x="0" y="0" width="400" height="500" fill="#F1EEEA"/><ellipse cx="200" cy="410" rx="120" ry="17.5" fill="#000" opacity=".12"/><path d="M72.0 370.0 L72.0 270.0 Q80.0 235.0 115.99999999999999 245.0 L140.0 260.0 Q156.0 215.0 188.0 220.0 L224.00000000000003 275.0 Q288.0 295.0 324.0 320.0 Q348.0 340.0 340.0 370.0Z" fill="#FF0049"/><path d="M68.0 367.5 H344.0 Q348.0 395.0 320.0 395.0 H80.0 Q64.0 395.0 68.0 367.5Z" fill="#FFFFFF"/><path d="M88.0 310.0 Q180.0 330.0 240.0 300.0" fill="none" stroke="#FFFFFF" stroke-width="4.8" stroke-linecap="round" stroke-linejoin="round"/><line x1="164" y1="245" x2="180" y2="267.5" stroke="#FFFFFF" stroke-width="2" stroke-linecap="round"/><line x1="180" y1="257.5" x2="196" y2="277.5" stroke="#FFFFFF" stroke-width="2" stroke-linecap="round"/><line x1="196" y1="270" x2="212" y2="287.5" stroke="#FFFFFF" stroke-width="2" stroke-linecap="round"/></g>
</svg>