<svg xmlns="http://www.w3.org/2000/svg" width="1600" height="1100" viewBox="0 0 1600 1100" role="img" aria-labelledby="t d">
<title id="t">Media modules</title>
<desc id="d">Media is structure, not decoration. Video, galleries, stories and shoppable looks each have one control model, and all of them keep text off the image unless a scrim is underneath. · Wake, A Glance-inspired design system. Original vector artwork; not a Glance asset.</desc>
<defs><style>.sans{font-family:Inter, 'Helvetica Neue', Arial, sans-serif;}.disp{font-family:'Instrument Serif', 'Times New Roman', Georgia, serif;}.tnum{font-variant-numeric:tabular-nums;}</style><clipPath id="c80"><rect x="64" y="260" width="440" height="247.5" rx="16"/></clipPath><linearGradient id="g81" x1="0" y1="0" x2="0" y2="1"><stop offset="0" stop-color="#12051F"/><stop offset="1" stop-color="#3B0B3F"/></linearGradient><linearGradient id="g82" x1="0" y1="0" x2="0" y2="1"><stop offset="0" stop-color="#000" stop-opacity="0"/><stop offset="0.45" stop-color="#000" stop-opacity="0.0"/><stop offset="0.7" stop-color="#000" stop-opacity="0.35"/><stop offset="1" stop-color="#000" stop-opacity="0.7"/></linearGradient><clipPath id="c83"><rect x="64" y="580" width="440" height="247.5" rx="16"/></clipPath><linearGradient id="g84" x1="0" y1="0" x2="0" y2="1"><stop offset="0" stop-color="#0B1A2E"/><stop offset="0.45" stop-color="#12324A"/><stop offset="0.46" stop-color="#1F7A3F"/><stop offset="1" stop-color="#0F4F27"/></linearGradient><linearGradient id="g85" x1="0" y1="0" x2="0" y2="1"><stop offset="0" stop-color="#000" stop-opacity="0"/><stop offset="0.45" stop-color="#000" stop-opacity="0.0"/><stop offset="0.7" stop-color="#000" stop-opacity="0.35"/><stop offset="1" stop-color="#000" stop-opacity="0.7"/></linearGradient><clipPath id="c86"><rect x="560" y="260" width="300" height="533" rx="20"/></clipPath><linearGradient id="g87" x1="0" y1="0" x2="0" y2="1"><stop offset="0" stop-color="#1A0B2E"/><stop offset="0.45" stop-color="#6A1C5C"/><stop offset="0.75" stop-color="#FF4D6D"/><stop offset="1" stop-color="#FFB38A"/></linearGradient><linearGradient id="g88" x1="0" y1="0" x2="0" y2="1"><stop offset="0" stop-color="#000" stop-opacity="0.5"/><stop offset="1" stop-color="#000" stop-opacity="0"/></linearGradient><linearGradient id="g89" x1="0" y1="0" x2="0" y2="1"><stop offset="0" stop-color="#000" stop-opacity="0"/><stop offset="0.45" stop-color="#000" stop-opacity="0.0"/><stop offset="0.7" stop-color="#000" stop-opacity="0.35"/><stop offset="1" stop-color="#000" stop-opacity="0.85"/></linearGradient><clipPath id="c91"><rect x="920" y="260" width="300" height="375" rx="20"/></clipPath><linearGradient id="g92" x1="0" y1="0" x2="0" y2="1"><stop offset="0" stop-color="#EAD9CC"/><stop offset="1" stop-color="#C49E8C"/></linearGradient><clipPath id="c93"><rect x="1280" y="260" width="256" height="320" rx="16"/></clipPath><clipPath id="c94"><rect x="1280" y="600" width="58" height="58" rx="8"/></clipPath><clipPath id="c95"><rect x="1346" y="600" width="58" height="58" rx="8"/></clipPath><clipPath id="c96"><rect x="1412" y="600" width="58" height="58" rx="8"/></clipPath><clipPath id="c97"><rect x="1478" y="600" width="58" height="58" rx="8"/></clipPath></defs>
<rect id="background" width="1600" height="1100" fill="#0C0C10"/>
<text x="64" y="84" class="sans" font-size="12" font-weight="600" letter-spacing="0.96" fill="#FF0049">COMPONENTS · 07</text>
<text x="64" y="148" class="disp" font-size="64" font-weight="400" letter-spacing="-0.32" fill="#FFFFFF">Media modules</text>
<text x="1016" y="76" class="sans" font-size="15" font-weight="400" fill="#B8B8C2">Media is structure, not decoration. Video, galleries, stories and</text><text x="1016" y="98.5" class="sans" font-size="15" font-weight="400" fill="#B8B8C2">shoppable looks each have one control model, and all of them keep text</text><text x="1016" y="121" class="sans" font-size="15" font-weight="400" fill="#B8B8C2">off the image unless a scrim is underneath.</text>
<line x1="64" y1="184" x2="1536" y2="184" stroke="rgba(255, 255, 255, 0.08)" stroke-width="1" stroke-linecap="butt"/>
<line x1="64" y1="1044" x2="1536" y2="1044" stroke="rgba(255, 255, 255, 0.08)" stroke-width="1" stroke-linecap="butt"/>
<text x="64" y="1074" class="sans" font-size="12" font-weight="500" fill="#85838F">Wake · A Glance-inspired design system · v1.0</text>
<path d="M1399.65 1065.55 L1404.45 1070.35 L1399.65 1075.15 L1394.85 1070.35Z" fill="none" stroke="#85838F" stroke-width="1.2" stroke-linecap="round" stroke-linejoin="round"/><text x="1410.45" y="1074" class="sans" font-size="12" font-weight="500" fill="#85838F">Original interpretation</text>
<circle cx="1276.67" cy="1070.35" r="4.2" fill="none" stroke="#85838F" stroke-width="1.2"/><text x="1287.47" y="1074" class="sans" font-size="12" font-weight="500" fill="#85838F">Reconstruction</text>
<circle cx="1145.13" cy="1070.35" r="4.2" fill="none" stroke="#FFFFFF" stroke-width="1.2"/><path d="M1145.13 1066.15 A4.200000000000001 4.200000000000001 0 0 0 1145.13 1074.55Z" fill="#FFFFFF"/><text x="1155.93" y="1074" class="sans" font-size="12" font-weight="500" fill="#FFFFFF">Strong inference</text>
<circle cx="1053.03" cy="1070.35" r="4.8" fill="#85838F"/><text x="1063.83" y="1074" class="sans" font-size="12" font-weight="500" fill="#85838F">Observed</text>
<text x="64" y="240" class="sans" font-size="11" font-weight="600" letter-spacing="0.88" fill="#85838F">VIDEO CARD</text>
<g id="card-video"><g clip-path="url(#c80)" data-media="concert"><rect x="64" y="260" width="440" height="247.5" fill="url(#g81)"/><path d="M174.0 260 L77.2 458.0 H270.8Z" fill="#FF0049" opacity="0.22"/><path d="M284.0 260 L187.2 458.0 H380.8Z" fill="#DDBEF0" opacity="0.22"/><path d="M394.0 260 L297.2 458.0 H490.8Z" fill="#FF7A45" opacity="0.22"/><rect x="152" y="396.12" width="264" height="9.9" fill="#000000" opacity="0.5"/><path d="M64 482.75 a13.2 13.2 0 0 1 26.4 0a13.2 13.2 0 0 1 26.4 0a13.2 13.2 0 0 1 26.4 0a13.2 13.2 0 0 1 26.4 0a13.2 13.2 0 0 1 26.4 0a13.2 13.2 0 0 1 26.4 0a13.2 13.2 0 0 1 26.4 0a13.2 13.2 0 0 1 26.4 0a13.2 13.2 0 0 1 26.4 0a13.2 13.2 0 0 1 26.4 0a13.2 13.2 0 0 1 26.4 0a13.2 13.2 0 0 1 26.4 0a13.2 13.2 0 0 1 26.4 0a13.2 13.2 0 0 1 26.4 0a13.2 13.2 0 0 1 26.4 0a13.2 13.2 0 0 1 26.4 0a13.2 13.2 0 0 1 26.4 0 V507.5 H64Z" fill="#07020C"/></g><rect x="64" y="260" width="440" height="247.5" rx="16" fill="url(#g82)"/><circle cx="284" cy="383.75" r="28" fill="rgba(22,22,27,.56)"/><g transform="translate(273 371.75) scale(1.0)" fill="#FFFFFF" stroke="#FFFFFF" stroke-width="1.75" stroke-linecap="round" stroke-linejoin="round" data-icon="play"><path d="M7.5 5v14a.9.9 0 0 0 1.4.8l10.8-7a.9.9 0 0 0 0-1.6L8.9 4.2A.9.9 0 0 0 7.5 5z"/></g><g><rect x="76" y="272" width="52.36" height="22" rx="11.0" fill="#FF0049"/><circle cx="87" cy="283" r="3" fill="#FFFFFF"/><text x="95" y="286.8" class="sans" font-size="10.5" font-weight="600" letter-spacing="0.84" fill="#FFFFFF">LIVE</text></g><rect x="76" y="495.5" width="416" height="3" rx="1.5" fill="rgba(255,255,255,.32)"/><rect x="76" y="495.5" width="145.6" height="3" rx="1.5" fill="#FF0049"/><text x="64" y="531.5" class="sans" font-size="17" font-weight="600" letter-spacing="-0.17" fill="#FFFFFF">Front row at the monsoon music fest</text><text x="64" y="555.6" class="sans tnum" font-size="12" font-weight="500" letter-spacing="0.12" fill="#85838F">Live now · 12.4k watching</text></g>
<g id="card-video"><g clip-path="url(#c83)" data-media="stadium"><rect x="64" y="580" width="440" height="247.5" fill="url(#g84)"/><path d="M108.0 827.5 L218.0 693.85 H350.0 L460.0 827.5" fill="none" stroke="#FFFFFF" stroke-width="1.5" stroke-linecap="round" stroke-linejoin="round" opacity="0.5"/><path d="M152.0 765.625 Q284.0 740.875 416.0 765.625" fill="none" stroke="#FFFFFF" stroke-width="1.5" stroke-linecap="round" stroke-linejoin="round" opacity="0.5"/><circle cx="108" cy="609.7" r="6.19" fill="#FFFFFF" opacity="0.9"/><path d="M108.0 609.7 L72.8 693.85 H143.2Z" fill="#FFFFFF" opacity="0.06"/><circle cx="196" cy="609.7" r="6.19" fill="#FFFFFF" opacity="0.9"/><path d="M196.00000000000003 609.7 L160.8 693.85 H231.2Z" fill="#FFFFFF" opacity="0.06"/><circle cx="284" cy="609.7" r="6.19" fill="#FFFFFF" opacity="0.9"/><path d="M284.0 609.7 L248.8 693.85 H319.20000000000005Z" fill="#FFFFFF" opacity="0.06"/><circle cx="372" cy="609.7" r="6.19" fill="#FFFFFF" opacity="0.9"/><path d="M372.00000000000006 609.7 L336.80000000000007 693.85 H407.2Z" fill="#FFFFFF" opacity="0.06"/><circle cx="460" cy="609.7" r="6.19" fill="#FFFFFF" opacity="0.9"/><path d="M460.0 609.7 L424.8 693.85 H495.2Z" fill="#FFFFFF" opacity="0.06"/></g><rect x="64" y="580" width="440" height="247.5" rx="16" fill="url(#g85)"/><circle cx="284" cy="703.75" r="28" fill="rgba(22,22,27,.56)"/><g transform="translate(273 691.75) scale(1.0)" fill="#FFFFFF" stroke="#FFFFFF" stroke-width="1.75" stroke-linecap="round" stroke-linejoin="round" data-icon="play"><path d="M7.5 5v14a.9.9 0 0 0 1.4.8l10.8-7a.9.9 0 0 0 0-1.6L8.9 4.2A.9.9 0 0 0 7.5 5z"/></g><g><rect x="444" y="793.5" width="54.84" height="22" rx="11.0" fill="rgba(22,22,27,.56)"/><g transform="translate(451 798) scale(0.5417)" fill="none" stroke="#FFFFFF" stroke-width="3.231" stroke-linecap="round" stroke-linejoin="round" data-icon="trending"><path d="M3.5 17 9.5 11l4 4 7-7.5"/><path d="M15 7.5h5.5V13"/></g><text x="467" y="808.3" class="sans" font-size="10.5" font-weight="600" letter-spacing="0.84" fill="#FFFFFF">4:12</text></g><rect x="76" y="815.5" width="416" height="3" rx="1.5" fill="rgba(255,255,255,.32)"/><rect x="76" y="815.5" width="257.92" height="3" rx="1.5" fill="#FF0049"/><text x="64" y="851.5" class="sans" font-size="17" font-weight="600" letter-spacing="-0.17" fill="#FFFFFF">Last over, every angle</text><text x="64" y="875.6" class="sans tnum" font-size="12" font-weight="500" letter-spacing="0.12" fill="#85838F">Highlights · 1.2M views</text></g>
<text x="560" y="240" class="sans" font-size="11" font-weight="600" letter-spacing="0.88" fill="#85838F">STORY VIEWER (9:16)</text>
<g clip-path="url(#c86)" data-media="dusk"><rect x="560" y="260" width="300" height="533" fill="url(#g87)"/><circle cx="746" cy="590.46" r="48" fill="#FFD9B0" opacity="0.95"/><path d="M560 643.76 Q635.0 590.46 710.0 643.76 T860 633.0999999999999 V793 H560Z" fill="#2A0E2E"/><path d="M560 697.06 Q650.0 665.0799999999999 740.0 707.72 T860 686.4000000000001 V793 H560Z" fill="#12060F"/></g>
<rect x="560" y="260" width="300" height="120" rx="20" fill="url(#g88)"/>
<rect x="560" y="260" width="300" height="533" rx="20" fill="url(#g89)"/>
<g><rect x="572" y="272" width="52" height="3" rx="1.5" fill="rgba(255,255,255,.32)"/><rect x="572" y="272" width="52" height="3" rx="1.5" fill="rgba(255,255,255,.92)"/><rect x="628" y="272" width="52" height="3" rx="1.5" fill="rgba(255,255,255,.32)"/><rect x="628" y="272" width="31.2" height="3" rx="1.5" fill="rgba(255,255,255,.92)"/><rect x="684" y="272" width="52" height="3" rx="1.5" fill="rgba(255,255,255,.32)"/><rect x="740" y="272" width="52" height="3" rx="1.5" fill="rgba(255,255,255,.32)"/><rect x="796" y="272" width="52" height="3" rx="1.5" fill="rgba(255,255,255,.32)"/></g>
<g><circle cx="586" cy="302" r="14" fill="#B98BDB"/><text x="586" y="306.76" class="sans" font-size="12.6" font-weight="700" letter-spacing="-0.13" text-anchor="middle" fill="#251A2E">W</text></g>
<text x="608" y="307" class="sans" font-size="12" font-weight="600" fill="#FFFFFF">Wake Travel · 2h</text>
<text x="576" y="690" class="sans" font-size="22" font-weight="700" letter-spacing="-0.44" fill="#FFFFFF">Goa's first sunny</text>
<text x="576" y="716" class="sans" font-size="22" font-weight="700" letter-spacing="-0.44" fill="#FFFFFF">weekend in months</text>
<g><rect x="576" y="736" width="153.5" height="32" rx="16.0" fill="rgba(255,255,255,.16)"/><text x="590" y="756.68" class="sans" font-size="13" font-weight="600" letter-spacing="-0.07" fill="#FFFFFF">See the beaches</text><g transform="translate(699.5 744) scale(0.6667)" fill="none" stroke="#FFFFFF" stroke-width="2.625" stroke-linecap="round" stroke-linejoin="round" data-icon="arrow"><path d="M7 17 17 7"/><path d="M8.5 7H17v8.5"/></g></g>
<text x="920" y="240" class="sans" font-size="11" font-weight="600" letter-spacing="0.88" fill="#85838F">SHOPPABLE LOOK (HOTSPOTS)</text>
<g clip-path="url(#c91)" data-media="studio"><rect x="920" y="260" width="300" height="375" fill="url(#g92)"/><path d="M920 560.0 H1220 V635 H920Z" fill="#000000" opacity="0.08"/><circle cx="1070" cy="335" r="23.33" fill="#5B3A2E"/><rect x="1061.67" y="353.75" width="16.67" height="16.67" fill="#8A5A45"/><path d="M1016.6666666666666 383.75 Q1070.0 361.25 1123.3333333333333 383.75 L1136.6666666666667 530.0 L1003.3333333333334 530.0Z" fill="#FF0049"/><path d="M1070.0 372.5 L1053.3333333333333 447.5 L1070.0 530.0" fill="none" stroke="#000000" stroke-width="1.2" stroke-linecap="round" stroke-linejoin="round" opacity="0.25"/><rect x="1036.67" y="530" width="23.33" height="86.25" fill="#2A2530"/><rect x="1080" y="530" width="23.33" height="86.25" fill="#2A2530"/><circle cx="962" cy="312.5" r="60" fill="#FFFFFF" opacity="0.25"/></g>
<circle cx="1070" cy="360" r="14" fill="rgba(255,255,255,.35)"/>
<circle cx="1070" cy="360" r="7" fill="#FFFFFF"/>
<circle cx="1080" cy="470" r="14" fill="rgba(255,255,255,.35)"/>
<circle cx="1080" cy="470" r="7" fill="#FFFFFF"/>
<circle cx="1040" cy="600" r="14" fill="rgba(255,255,255,.35)"/>
<circle cx="1040" cy="600" r="7" fill="#FFFFFF"/>
<rect x="1110" y="452" width="150" height="40" rx="20" fill="rgba(22,22,27,.72)"/>
<text x="1124" y="477" class="sans" font-size="12" font-weight="600" fill="#FFFFFF">Wool coat · ₹6,499</text>
<g><rect x="932" y="272" width="118.61" height="24" rx="12.0" fill="rgba(37,26,46,.82)"/><g transform="translate(939 277.5) scale(0.5417)" fill="none" stroke="#DDBEF0" stroke-width="3.231" stroke-linecap="round" stroke-linejoin="round" data-icon="personalization"><path d="M11 3.5c.6 4.3 2.2 5.9 6.5 6.5-4.3.6-5.9 2.2-6.5 6.5-.6-4.3-2.2-5.9-6.5-6.5 4.3-.6 5.9-2.2 6.5-6.5z"/><path d="M18.5 15.5c.2 1.3.7 1.8 2 2-1.3.2-1.8.7-2 2-.2-1.3-.7-1.8-2-2 1.3-.2 1.8-.7 2-2z"/></g><text x="955" y="287.8" class="sans" font-size="10.5" font-weight="600" letter-spacing="0.84" fill="#DDBEF0">STARRING YOU</text></g>
<text x="1280" y="240" class="sans" font-size="11" font-weight="600" letter-spacing="0.88" fill="#85838F">GALLERY</text>
<g clip-path="url(#c93)" data-media="sneaker"><rect x="1280" y="260" width="256" height="320" fill="#F1EEEA"/><ellipse cx="1408" cy="522.4" rx="76.8" ry="11.2" fill="#000" opacity=".12"/><path d="M1326.08 496.8 L1326.08 432.8 Q1331.2 410.4 1354.24 416.8 L1369.6 426.4 Q1379.84 397.6 1400.32 400.8 L1423.3600000000001 436.0 Q1464.32 448.79999999999995 1487.3600000000001 464.8 Q1502.72 477.6 1497.6 496.8Z" fill="#FF0049"/><path d="M1323.52 495.2 H1500.16 Q1502.72 512.8 1484.8 512.8 H1331.2 Q1320.96 512.8 1323.52 495.2Z" fill="#FFFFFF"/><path d="M1336.32 458.4 Q1395.2 471.20000000000005 1433.6 452.0" fill="none" stroke="#FFFFFF" stroke-width="3.072" stroke-linecap="round" stroke-linejoin="round"/><line x1="1384.96" y1="416.8" x2="1395.2" y2="431.2" stroke="#FFFFFF" stroke-width="2" stroke-linecap="round"/><line x1="1395.2" y1="424.8" x2="1405.44" y2="437.6" stroke="#FFFFFF" stroke-width="2" stroke-linecap="round"/><line x1="1405.44" y1="432.8" x2="1415.68" y2="444" stroke="#FFFFFF" stroke-width="2" stroke-linecap="round"/></g>
<g><rect x="1381" y="556" width="18" height="6" rx="3" fill="#FFFFFF"/><rect x="1405" y="556" width="6" height="6" rx="3" fill="#2A2A33"/><rect x="1417" y="556" width="6" height="6" rx="3" fill="#2A2A33"/><rect x="1429" y="556" width="6" height="6" rx="3" fill="#2A2A33"/></g>
<g clip-path="url(#c94)" data-media="sneaker"><rect x="1280" y="600" width="58" height="58" fill="#F1EEEA"/><ellipse cx="1309" cy="647.56" rx="17.4" ry="2.03" fill="#000" opacity=".12"/><path d="M1290.44 642.92 L1290.44 631.32 Q1291.6 627.26 1296.82 628.42 L1300.3 630.16 Q1302.62 624.94 1307.26 625.52 L1312.48 631.9 Q1321.76 634.22 1326.98 637.12 Q1330.46 639.44 1329.3 642.92Z" fill="#FF0049"/><path d="M1289.86 642.63 H1329.88 Q1330.46 645.82 1326.4 645.82 H1291.6 Q1289.28 645.82 1289.86 642.63Z" fill="#FFFFFF"/><path d="M1292.76 635.96 Q1306.1 638.28 1314.8 634.8" fill="none" stroke="#FFFFFF" stroke-width="2" stroke-linecap="round" stroke-linejoin="round"/><line x1="1303.78" y1="628.42" x2="1306.1" y2="631.03" stroke="#FFFFFF" stroke-width="2" stroke-linecap="round"/><line x1="1306.1" y1="629.87" x2="1308.42" y2="632.19" stroke="#FFFFFF" stroke-width="2" stroke-linecap="round"/><line x1="1308.42" y1="631.32" x2="1310.74" y2="633.35" stroke="#FFFFFF" stroke-width="2" stroke-linecap="round"/></g>
<rect x="1280" y="600" width="58" height="58" rx="8" fill="none" stroke="#FFFFFF" stroke-width="2"/>
<g clip-path="url(#c95)" data-media="bag"><rect x="1346" y="600" width="58" height="58" fill="#F1EEEA"/><ellipse cx="1375" cy="647.56" rx="17.4" ry="2.03" fill="#000" opacity=".12"/><path d="M1369.2 620.88 Q1375.0 606.96 1380.8 620.88" fill="none" stroke="#2B2230" stroke-width="2" stroke-linecap="round" stroke-linejoin="round"/><rect x="1362.24" y="619.72" width="25.52" height="25.52" rx="2.32" fill="#C79A6A"/><rect x="1362.24" y="619.72" width="25.52" height="4.64" rx="1.16" fill="#B0845A"/></g>
<g clip-path="url(#c96)" data-media="watch"><rect x="1412" y="600" width="58" height="58" fill="#F1EEEA"/><ellipse cx="1441" cy="647.56" rx="17.4" ry="2.03" fill="#000" opacity=".12"/><rect x="1438.68" y="606.96" width="4.64" height="40.6" rx="4" fill="#2B2230"/><circle cx="1441" cy="627.26" r="9.86" fill="#2B2230"/><circle cx="1441" cy="627.26" r="8.12" fill="#F7F4EF"/><line x1="1441" y1="627.26" x2="1441" y2="622.62" stroke="#2B2230" stroke-width="2" stroke-linecap="round"/><line x1="1441" y1="627.26" x2="1444.48" y2="629" stroke="#FF0049" stroke-width="2" stroke-linecap="round"/></g>
<g clip-path="url(#c97)" data-media="lamp"><rect x="1478" y="600" width="58" height="58" fill="#F1EEEA"/><ellipse cx="1507" cy="647.56" rx="17.4" ry="2.03" fill="#000" opacity=".12"/><path d="M1498.88 623.2 L1503.52 610.44 H1510.48 L1515.12 623.2Z" fill="#DDBEF0"/><rect x="1506.42" y="623.2" width="1.16" height="20.88" fill="#2B2230"/><rect x="1501.2" y="644.08" width="11.6" height="2.32" rx="3" fill="#2B2230"/></g>
<text x="560" y="860" class="sans" font-size="15" font-weight="400" fill="#B8B8C2">· Video: 16:9 in feed, 9:16 full-screen. Play glyph in a 56px glass circle; progress 3px, signal fill.</text>
<text x="560" y="890" class="sans" font-size="15" font-weight="400" fill="#B8B8C2">· Stories: 5s per frame, hold to pause, tap edges to step, swipe down to close. Text sits on scrim-bottom.</text>
<text x="560" y="920" class="sans" font-size="15" font-weight="400" fill="#B8B8C2">· Hotspots: 28px ring + 14px dot; tap opens a product sheet, never navigates away from the look.</text>
<text x="560" y="950" class="sans" font-size="15" font-weight="400" fill="#B8B8C2">· Galleries: swipe, dots under the image, thumbnails on tablet+; zoom on pinch.</text>
</svg>